<svg xmlns="http://www.w3.org/2000/svg" viewBox="0 0 462.61 265.43" width="462.61" height="265.43"><defs><style>.a{fill:#1a1a18;}.b,.c{fill:#fff;}.b{fill-rule:evenodd;}</style></defs><title>logo</title><path class="a" d="M326.16,251.32l0.95-1.8-1,1L327.7,252ZM196,349.75l-3.42,3.66-0.79-1,3.16-3.65Zm-1.11-38.93-1.18,2.57-1.53-.45,1.18-2.57Zm2.21-1.85a18.36,18.36,0,0,0-2.14.33,6.17,6.17,0,0,0-2.37.84,1.63,1.63,0,0,1,0-1.26,1,1,0,0,1,1-1.3,0.91,0.91,0,0,0-1.51.18,5.1,5.1,0,0,1-2,1.46q0.94-2.06,1.87-4.49t4.19-3.06l-2,2.09q1.83,1.71,2.84,1.67Zm-3.57-22.4a8.08,8.08,0,0,1-2.06,2.73A19.74,19.74,0,0,0,188.9,292a4.67,4.67,0,0,0,2.59,1.68q1.27,0.21,1.34,2.23a2.61,2.61,0,0,1-1.3,2.7,5.74,5.74,0,0,1-2.13.71,8.19,8.19,0,0,1-1.69-5,32.5,32.5,0,0,0-.71-5.8,2.94,2.94,0,0,1-.74.53,3.52,3.52,0,0,1-1.51.31l2.43-2.87,1,1,2-2.09a1.46,1.46,0,0,0-.47,1,1,1,0,0,0,1.3,1q2-.07,1.88-0.45T193.52,286.57Zm-8.08-6.8-2.74,1.36-0.05-1.52,2.24-1.09Zm1.38-4.1a1.55,1.55,0,0,1,.44,1.76,1.78,1.78,0,0,1-1.86,1.08,2.25,2.25,0,0,1,.22-1A6.76,6.76,0,0,1,186.81,275.67Zm7.92-12.42L190.34,268l-0.8-1.24,4.15-4.45Zm0,158.42-1.3-1L191.2,423l1,1Zm-5.54-13.73-0.1-2.78-1.52.05,0.1,2.78Zm4.51,5.92a3.72,3.72,0,0,1-2.64.6,12.91,12.91,0,0,0-2.16-.18,12.5,12.5,0,0,1,1.86,2.47q1.07,1.73,1.88,3.22a10.94,10.94,0,0,1,.51-3.43A10.08,10.08,0,0,0,193.66,413.85Zm4.5,5.66-1-1-2.2,2.35,0.8,1.24Zm5.62-5.76a13,13,0,0,0-2.14.33,2.29,2.29,0,0,1-2.17-.43q-0.76,0-1.21,1.56a4.16,4.16,0,0,0-.21,1.27,7.41,7.41,0,0,0,3.25-1A10,10,0,0,0,203.78,413.75Zm-7.87-29.59a8.31,8.31,0,0,0-2.46,2q-1,1.17-1.7,2-0.81-1.49-1.36-2.61a1.52,1.52,0,0,0-1.3-1.09l0.16,4.55a4.85,4.85,0,0,1,2.08,1.57,3.71,3.71,0,0,1,.3,1.38,12.33,12.33,0,0,0,1.24-.8,15.42,15.42,0,0,0,2.21-1.85l-1.39,0a2.11,2.11,0,0,1-1.42-.71Zm-10.43,5.68L197,392.23l1.29,0.71Zm27.06,28.41-0.2-5.81a2.07,2.07,0,0,0-1.24.8,10,10,0,0,0-1.21,1.56q0.53,0.74,1.2,1.73A9.93,9.93,0,0,0,212.54,418.25Zm-26.2-40.08a1.89,1.89,0,0,0-.07-1.9,6.22,6.22,0,0,0-1.33-1.85,8.85,8.85,0,0,0,.6,2.76A1.63,1.63,0,0,0,186.34,378.17Zm23,28.3a19,19,0,0,0-3.47,2.15,5.78,5.78,0,0,1-3.24,1.38,4.9,4.9,0,0,1,1.44,1.47,1.74,1.74,0,0,0,1.43,1q0.73-.78,2.31-2.61A5.07,5.07,0,0,0,209.35,406.47Zm-15.71-7.8-0.12-3.54-1.77.06,0.12,3.54Zm12.2,8.68a3,3,0,0,0-.1-2.91,2.43,2.43,0,0,0-2.33-1.56,8.45,8.45,0,0,1,1.6,2.35A7.11,7.11,0,0,1,205.84,407.35Zm14.7,7.84a3.25,3.25,0,0,0-2.44,2.62A3.25,3.25,0,0,0,220.53,415.19Zm-6.82-6.85-0.81-1.49-2.23,1.34,0.05,1.52ZM195.1,389.76l-1-1-2.2,2.35,0.8,1.24Zm24.59,22.93a4.31,4.31,0,0,0-1.47-2.23,9.68,9.68,0,0,0-2-1.7l-1.74.82a3.39,3.39,0,0,1,2,2.08,11.87,11.87,0,0,0,.7,1.87q0.26,0.24,1.51-.31Zm-28.75-40.75-0.09-2.53-1.77.06,0.09,2.53Zm5.35,22.84a3.83,3.83,0,0,0,2.43-2.87C200.11,385.4,197.27,388.18,196.29,394.78Zm31.4,22.44q-2.82-.91-3.36-2a7.65,7.65,0,0,1-.71-2.13,5.05,5.05,0,0,0-.7-1.87q-0.54-.87-3.33-1a6,6,0,0,0,1.56,1.08,5.94,5.94,0,0,1,1.56,1.08,7.6,7.6,0,0,0-1.06,2.19,1,1,0,0,0,0,.76,1.49,1.49,0,0,1,.27.37,1.58,1.58,0,0,1-.09,1,11,11,0,0,1,2.92.28A11,11,0,0,0,227.69,417.22Zm-35.85-48.35-0.12-3.54-1.77.06,0.12,3.54Zm23.25,35.38a5.34,5.34,0,0,0-1-2.88,5.34,5.34,0,0,1-1-2.88,1.56,1.56,0,0,0-.88.28,8.33,8.33,0,0,1-.87.54l-1,.54a17.92,17.92,0,0,0,2.62,2.44A11.4,11.4,0,0,1,215.09,404.25Zm-23.19-26.52L190.6,377l-2.41,3.37,1.55,1Zm38.68,35.09a3.89,3.89,0,0,0-1.5.56,1.94,1.94,0,0,1-.75.28,4.87,4.87,0,0,1,.91-2.94,4.51,4.51,0,0,0,.94-1.93l-5.37,5.75a2.63,2.63,0,0,1,1.67.7q0.91,0.73,1.7,1.46a6.22,6.22,0,0,0,1.2-1.94A6.22,6.22,0,0,1,230.57,412.81Zm-13-9.92-0.09-2.53-1.52.05,0.09,2.53Zm-28.44-46.33a4.08,4.08,0,0,1-1.79-.44,1.65,1.65,0,0,1-.78-0.73l-2.43,2.87a1.57,1.57,0,0,1,1.31,1.22,5.93,5.93,0,0,0,1.33,2A5.79,5.79,0,0,0,188,359,5.78,5.78,0,0,1,189.13,356.56Zm46,56.09a7,7,0,0,0-3.2,2.64q-1.2,1.81-1.92,3.1A32.33,32.33,0,0,0,235.12,412.66ZM192.21,372.4a5.1,5.1,0,0,0-3.48,1.89q-0.76,0,.75-0.15A4.08,4.08,0,0,0,192.21,372.4Zm-5-21.33-1.3-1-2.15,3.62,1.3,1Zm47.66,60.34-1.37-3-1.25.55,1.1,2.49Zm-37.32-39.69-1-1-4.15,4.45,0.8,1.24ZM228,405.56l-0.2-5.81q-2,.32-1.7-1.59c0.4-2.46.63-2.85-2.45-1.43a2.57,2.57,0,0,0-1.42,2.71,4.84,4.84,0,0,0,2,3.22A36.71,36.71,0,0,0,228,405.56Zm3.54-.12-0.1-2.78-1.52.05,0.1,2.78Zm-31.5-32.56a6.24,6.24,0,0,0-1.2,1.94c-1.17,2.91-.22,2,0.77.35A4.14,4.14,0,0,0,200.08,372.88Zm47.8,42.62-1.28-.46-1.18,2.57,1.28,0.46ZM187.15,365l-0.26-7.33-2.06-.94a9.19,9.19,0,0,1,1.42-6.5q2-3.49,4.56-7t4.81-7.13a12.22,12.22,0,0,0,2.16-6.91,11.39,11.39,0,0,0-1.88,4.11,16.61,16.61,0,0,0-.36,4.06q0.07,2,.27,4a21.7,21.7,0,0,1,0,4q-1,1.55-1.8,2.85a2.78,2.78,0,0,1-2.36,1.35l3.9-4.19a7.09,7.09,0,0,1-1.39-.08,14.76,14.76,0,0,0-2.41,0q-2,.07-2-1.7t0.26-3.3q0.18,5.06.11,10.37t-0.64,10.65a1.08,1.08,0,0,0-1.64.06q-0.86.79-1.59,1.57a1.56,1.56,0,0,1,.89.22,8.37,8.37,0,0,0,.9.47l1,0.47a2.81,2.81,0,0,1,.21-1.27,2.94,2.94,0,0,0,.48-0.78,4.39,4.39,0,0,1,1.06,1.35,1,1,0,0,0,1,.6,12.66,12.66,0,0,0,2.29-3.37,3.85,3.85,0,0,0,.54-2.55,16.54,16.54,0,0,1-1.72,1.58,1.22,1.22,0,0,1-1.77.06l4.14-4.7a15.9,15.9,0,0,1,1.24,2.87,3.18,3.18,0,0,0,1.2,1.86,2,2,0,0,1,.21-1.27l0.49-.52q0.29,1-1.82,2.09t-4.85,2.32q-2.74,1.23-5.1,2.58t-2.32,2.36ZM251,409.82a6.76,6.76,0,0,0-1.2,1.81,2.25,2.25,0,0,0-.22,1,2,2,0,0,0,1.48-1.06A1.22,1.22,0,0,0,251,409.82Zm12.61,5.89a4.08,4.08,0,0,1-1.79-.44,1.66,1.66,0,0,1-.78-0.73l-4.14,4.7a1,1,0,0,1,.77.23,2.94,2.94,0,0,0,.78.48,4,4,0,0,0,1,.72Zm-3.84-1.13-0.8-1.24-2.24,1.09,0.05,1.52ZM193.1,332.64a9.3,9.3,0,0,0-2.38.59,9.31,9.31,0,0,1-2.38.59,2.49,2.49,0,0,1,.66.86,6.81,6.81,0,0,0,.41.87,1.94,1.94,0,0,1,.28.75Zm-5.16-17.28q0.18,5.05-.76,7.36a17.67,17.67,0,0,1-1.05,2.44,6,6,0,0,0-.8,2.43,7,7,0,0,0,3.07-6.18,18.44,18.44,0,0,0-.36-3A9.17,9.17,0,0,1,187.95,315.36Zm-2,.83-1-.72-3.42,3.41,1,1Zm-2.87-2.43q-0.78-.73-1.28-0.34a2.31,2.31,0,0,0-.71,1.29,13.29,13.29,0,0,0-.32,1.78,2.17,2.17,0,0,1-.34,1.15,9.11,9.11,0,0,0,2.67-3.13Q183.81,313,183.08,313.76ZM283.25,414a22,22,0,0,1-3-.15,4.42,4.42,0,0,1-2.56-.92l0.17,4.8a5.78,5.78,0,0,0,3.24-1.38A7.15,7.15,0,0,0,283.25,414ZM183,318.31l13.61-1.49-2.15,3.62,1.3,1Zm99.59,83.57-2.44,2.62a3.25,3.25,0,0,0,2.37-1A1,1,0,0,0,282.57,401.89Zm9.88,7.5-0.8-1.24-2.23,1.34,0,1.26Zm11.32,5.17-1.53-.45-1.18,2.57,1.53,0.45Zm-121-116L182.61,293q-0.51-.24,1.37-0.55t4.28-.53q2.4-.21,4.17-0.27l1.52-.05a8,8,0,0,1-.94,5.73q-1.55,2.71-2.73,5,1-.29-0.29-1a17.13,17.13,0,0,0-3.08-1.28q-1.79-.57-3.33-1T182.8,298.58ZM313.37,414.23a3.41,3.41,0,0,0-3.4.5q-1.86,1.2-2.6,1.74a7.4,7.4,0,0,0,3.38-1.13A7.09,7.09,0,0,1,313.37,414.23ZM300.15,398l-1-1-2.45,2.36,1.06,1.23Zm-1-1-1-1-2.44,2.62,1,1ZM192.51,279.26l-1-1-2.2,2.35,0.8,1.24Zm144.93,128.3-1.55-1-3.13,4.66,1.3,1ZM185.36,241.3l-1.53-.45-1.18,2.57,1.54,0.71Zm-4.3,7.24q0-1,2-1.46t4.78-.8a49.41,49.41,0,0,1,7.08-.25q1-.54.59-1.29a9,9,0,0,1-.72-2.51l-1.24-35.39q-2.21,2.1-4.54,4a14.08,14.08,0,0,0-3.53,3.92,39.23,39.23,0,0,0,.37,6.95q0.52,3.9.78,7.94t0.15,8a20.14,20.14,0,0,1-1.52,7.27,19,19,0,0,0,6.14-5.28,3.11,3.11,0,0,1-1.18,2.57,8.6,8.6,0,0,0-1.71,1.83,5.25,5.25,0,0,0-.06,1.9,3.21,3.21,0,0,1,0,1.26,5.64,5.64,0,0,1-.46,1.41,24,24,0,0,1-1.31,2.32,2.07,2.07,0,0,1-.8-1.24l0-.76-2.44,2.62a6.05,6.05,0,0,1,3.5,2.53,4.17,4.17,0,0,0,3.23,2l0.51,0h0.25v0.25a1.14,1.14,0,0,0,.3,1.25,0.73,0.73,0,0,1,.27.5q-1.21,1.56-2.55,3a7.25,7.25,0,0,1-3.09,2,2.49,2.49,0,0,1,.66.86,6.89,6.89,0,0,0,.41.87,2.25,2.25,0,0,1,.29,1q3.17-3.4,4.7-3.2,0.78,0.73.42,1.25t0.42,1.25l-1.46,1.57a6.86,6.86,0,0,0-2.13.58,6.89,6.89,0,0,1-2.13.58l0.24,6.82a7.49,7.49,0,0,1,2,.31,3.1,3.1,0,0,1,1.81,1.08,14.63,14.63,0,0,1-2.51,4.14q-1.58,1.83-.7,5.34a34.73,34.73,0,0,1,3.8-3.42,33.27,33.27,0,0,0,3.56-3.16q-3.61-1.9-2.8-4.2a7.69,7.69,0,0,1,2-3.36q0.81,1.49.57,1.88l-0.72,1.16a13.27,13.27,0,0,0-1.65-7.41,74.34,74.34,0,0,0-4.58-7.94q-2.54-3.83-4.79-6.67T181.06,248.54Zm3.4-18.59a17.47,17.47,0,0,0-3.69,3,9.41,9.41,0,0,0-2.64,4q1.26,0,1.37-.55a3.14,3.14,0,0,1,.84-1.29,2.43,2.43,0,0,0,1.8.7l1.77-.06a3.75,3.75,0,0,1-.11-3.29A7.65,7.65,0,0,0,184.46,229.94ZM337.57,411.36l-1.28-.46-1.18,2.57,1.28,0.46ZM182.34,220.15l-0.56-1.5L179.55,220l0.05,1.52Zm-2.17-11.31-1-.72-3.42,3.41,1,1ZM332.6,385l-1-1,5.71,4.1,1,1Zm-1.32-1.47a4.08,4.08,0,0,1-1.79-.44,1.65,1.65,0,0,1-.78-0.73l6.95,3.3a2.37,2.37,0,0,0,1.56,1.21,2.25,2.25,0,0,0,1,.22ZM185.38,213l-0.24-6.82-1.77.06,0.24,6.82ZM188.66,227l-1.57-1.46-1,1,1.32,1.47Zm4.19-3.18-3.41,3.66a1,1,0,0,1,.77.23,2.94,2.94,0,0,0,.78.48l1,0.47a3.71,3.71,0,0,0,.8-2.43Q192.87,224.59,192.85,223.83Zm-7.92-24-0.09-2.53-1.77.06,0.09,2.53ZM330.93,359l-1.13-3.5q-0.51,0,.52.36a16.15,16.15,0,0,1,2.18.94,21.25,21.25,0,0,1,2.07,1.19q0.91,0.6.66,0.86Zm-141.66-158a2.37,2.37,0,0,0,.56-2,3.21,3.21,0,0,0-1-2l-2.19,2.61a2.37,2.37,0,0,0,1.56,1.21A2.24,2.24,0,0,0,189.26,200.93ZM332.58,362.69q-2.86-2.18-2.92-3.82a26.17,26.17,0,0,0-.66-4.41l8.43,2.24q0,0.76-1.35,1.31a26.09,26.09,0,0,1-3,1q-1.63.44-3.26,0.75a4.8,4.8,0,0,0-1.88.57q-0.51-.23,1-0.67a31.26,31.26,0,0,1,3.39-.75q1.89-.32,3.27-0.49a5.65,5.65,0,0,0,1.13-.17q0,0.76,0,2.28a3.53,3.53,0,0,1-.8,2.31,3.66,3.66,0,0,0-1-.09q-1.27-.08-2.92-0.28t-3.05-.4q-1.4-.2-0.91-0.73l0,0.51a2,2,0,0,0,.21,2.4,16.17,16.17,0,0,0,2.1,2.08q1.17,1,2.09,1.82a1.62,1.62,0,0,1,.69,1.62l2.62,2.44a1.81,1.81,0,0,0,.3-2.29,20,20,0,0,0-1.61-2.47q-0.93-1.23-1.73-2.34A2.09,2.09,0,0,1,332.58,362.69ZM181,195.9a3.26,3.26,0,0,0-2,1.59,4.07,4.07,0,0,0-.44,1.79q0.73-.78,1.58-1.83A2.91,2.91,0,0,0,181,195.9ZM328.84,342.58l8,4.28q1-.29,0-0.89a21.09,21.09,0,0,0-2.83-1.29,34.25,34.25,0,0,0-3.46-1.14Q328.86,343.08,328.84,342.58ZM189.55,201.93l-0.81-1.49-3.45,2.65,0.8,1.24Zm-1.65-18.16-0.12-3.54a12.09,12.09,0,0,0-2.39.46,4.92,4.92,0,0,0-2.36,1.22,2.06,2.06,0,0,1,1.56,1.21,4.32,4.32,0,0,1,.83,2,5.9,5.9,0,0,1,1.48-1.06A2.25,2.25,0,0,1,187.9,183.77ZM328.2,353.23q-0.05-1.52-.25-3.41t-0.25-3.41q-0.73.78,0.45,1.88a28.64,28.64,0,0,0,2.86,2.3l3.24,2.29a3,3,0,0,1,1.59,2.1ZM187.14,190.88l-0.8-1.24-3.46,2.4,0.81,1.49Zm150.41,162-1-1-2.45,2.36,1.06,1.23ZM189.71,184.72a3.45,3.45,0,0,0-2-1.83,1.32,1.32,0,0,1-1.18-1.1l1.93-2.6a10.12,10.12,0,0,0-2.59,2,10.13,10.13,0,0,1-2.59,2l-1.83-1.71,8.59-.3a4.07,4.07,0,0,1-.44,1.79,2.93,2.93,0,0,1-.48.78,13.85,13.85,0,0,1,3.05.4q0.27,0.5-1.73,1.2l-4.5,1.55q-2.5.85-4.74,1.81T179,190.4q0,0.76,2.07,1.19t4.45,0.73q2.41,0.3,4.2.61t1.54,0.58q0.51,0-1.51.31t-4.53.66l-6.55.74,9.76-10.46ZM335.59,325.89l-1.54-.71-3.14,4.41,1.3,1ZM196.37,194.35l-1-1L192.89,196l1,1ZM330.1,335.19l-1.55-1,8,3.27-8.81,1.32ZM202.31,190.35l-1.3-1-3.17,3.4,1,1ZM326,304.72a1.3,1.3,0,0,0-.06,1.77,12.49,12.49,0,0,0,1.84,2.09l2.22,2.07a2.77,2.77,0,0,1,1.07,1.73,2,2,0,0,0-.57-1.75,20.31,20.31,0,0,0-2-2.08q-1.18-1.1-2.1-2.08A1.4,1.4,0,0,1,326,304.72ZM211.93,190.52a4.07,4.07,0,0,1-1.79-.44,1.65,1.65,0,0,1-.78-0.73,11.39,11.39,0,0,0-1.56,2.33q-0.83,1.55-.07,1.52a5.8,5.8,0,0,1,2.1-1.34A5.8,5.8,0,0,0,211.93,190.52Zm7,3.55a5.93,5.93,0,0,0-2.33,2.23,4.57,4.57,0,0,0-.81,2.18,3.92,3.92,0,0,1,1.19-2.19Q218.15,194.86,218.88,194.07Zm6.4,2.05-1.28-.46-1.18,2.57,1.28,0.46ZM225,188.55L224,187.32l-5.16,4.48,0.81,1.49Zm4.18,3.65-1-1-3.41,3.66,1,1ZM329.66,308.13a3.37,3.37,0,0,0-1.16-.72,3.37,3.37,0,0,1-1.16-.72,8.28,8.28,0,0,1-1.3-1,4.51,4.51,0,0,0,1.31,1.22A3.49,3.49,0,0,0,329.66,308.13ZM229.06,188.4l-1-1-2.45,2.36,1,1Zm2.82,1.17-0.56-1.5-2.23,1.34,0.05,1.52Zm-7-10.89-2.43,2.87a3.71,3.71,0,0,0,2-1.08Q225.71,179.41,224.93,178.68Zm108.91,96.91q-0.78-.73-0.86.66t-0.05,2.15a15.9,15.9,0,0,0,1.06-2.19Q334.57,274.81,333.84,275.59Zm-88.3-86.5a19,19,0,0,1-3.24,1.38,4.63,4.63,0,0,0-2.47,1.6l3.79-.13Zm8,10.35-0.09-2.53-1.77.06,0.09,2.53ZM248.82,189a1.52,1.52,0,0,1-1.09,1.3,6.21,6.21,0,0,0-1.85,1.33,4.27,4.27,0,0,0,2.88-1Q250.61,189.42,248.82,189Zm9.08,6.52-0.55-1.25-2.23,1.34,0,1.26Zm70.7,82.56h0.13a15.33,15.33,0,0,0,1.89-.19,13.87,13.87,0,0,1,1.64-.18h-0.38a15.33,15.33,0,0,0,.66,4.53,8,8,0,0,1,.58,2.26q0.75-.28,0-1.14t-1.84-1.83q-1-1-2.09-1.82T328.61,278.05Zm4.21-2.68-1-1-2.2,2.35,1.06,1.23ZM250.66,183.6l-1-1-2.2,2.35,0.8,1.24Zm9,3.23q-0.51,0-1.64.18l-2.27.33A3.38,3.38,0,0,0,254,188a0.84,0.84,0,0,0-.08,1.27,1.22,1.22,0,0,0-1.63.44l-1.59,1.7a6.86,6.86,0,0,0,2.65-.09,3.45,3.45,0,0,0,1.49-.94q0.61-.65,1.59-1.57A13.54,13.54,0,0,1,259.63,186.83Zm4.28-.66-1.3-1-7.07,7.59,1,1Zm-0.1,4.31-0.56-1.5-2.48,1.35,0.05,1.52Zm-8.27-12.11-1-1-4.39,4.71,1,1Zm18.61,18.33-1-1-2.44,2.62,1,1Zm-8.2-10.09-1.53-.45-1.18,2.57,1.54,0.71Zm-8.36-7.55-1.28-.46-1.18,2.57,1.28,0.46ZM327,246l-2.69,2.62a2.46,2.46,0,0,0,2.12-1A2.89,2.89,0,0,0,327,246Zm-39.91-48.71-1-1-3.42,3.41Zm-22.7-19.71-0.56-1.5-2.48,1.35,0,1.26Zm55.38,42.35-1-1C315.19,222.69,316.24,223.67,319.75,219.91Zm12,18.56-1.55-1-3.6,5.69,1.55,1Zm-3.14-17.35a6.63,6.63,0,0,0-1.79,3.23,2.13,2.13,0,0,1-2.34,1.73q-1,0,.5-0.14t3.53-.5q2-.32,3.53-0.5t0.5-.14a3.3,3.3,0,0,0-2.86,1.37,22,22,0,0,0-1.55,2.84,3.61,3.61,0,0,1-1.05-1.23,0.62,0.62,0,0,1,0-.76,8.78,8.78,0,0,1,0,3.29,5.06,5.06,0,0,1-1,2.57q0.75-.28.23-0.64a3,3,0,0,0-1.41-.46,4.58,4.58,0,0,0-1.52.05q-0.63.15,0.14,0.37l2.59-5.66Q327.22,223.95,328.64,221.11ZM306.1,198.62C300.29,204.23,308.91,201.24,306.1,198.62Zm19.58-4.48-0.55-1.25-2.23,1.34,0,1.26Zm-0.85-9.84a2.49,2.49,0,0,0-.6.91,6.92,6.92,0,0,1-.35.9,2.25,2.25,0,0,0-.22,1,2,2,0,0,0,1.23-1.06A1.22,1.22,0,0,0,324.83,184.3Zm1.62-4.36-1-1L322,182.38,323,183.6Zm4.09,1.12-1.06-1.48-4.43,3.7,1.05,1.23ZM230.05,419.67l-4,1.91L226,420.06l3.22-1.88Zm-38.63-33.57q-0.25,0-.27-0.5a0.86,0.86,0,0,1-.27-0.62,1.39,1.39,0,0,0-.54-0.87l-0.49.52a1.46,1.46,0,0,0-.47,1,5.82,5.82,0,0,1,.68-2.3,22.57,22.57,0,0,1,1.18-2.32ZM334,179.68a11.25,11.25,0,0,0-3.22,2q-1.72,1.45-1.42,2.71-1.23,1.06-.7,1.8a6.54,6.54,0,0,0,1.31,1.35,5.14,5.14,0,0,1,1.18,1.22q0.4,0.62-.6.91,0.78,0.73.42,1.12t0.42,1.12l-7.33.26,5.14-5-3.64,4.43a3.26,3.26,0,0,0,2.89-.48,12.21,12.21,0,0,0,2.45-2.24,14,14,0,0,0,1.8-2.72q0.71-1.42,1.19-2.19a15.82,15.82,0,0,1-.39,3.43,15.84,15.84,0,0,0-.39,3.43q-0.25,0-.27-0.5a0.86,0.86,0,0,1-.27-0.62,1.39,1.39,0,0,0-.54-0.87q-1.46,1.57-.66,2.81l-1.26,0a35.86,35.86,0,0,0-6.3,8.06q-1.9,3.61-1.15,10.42A18.2,18.2,0,0,0,327,210a14.24,14.24,0,0,0,2.77-.35q1.25-.3.73-0.78a6.82,6.82,0,0,0-2,3.36,13.5,13.5,0,0,1-2,4.12,7,7,0,0,1,2.08,1.7,6.29,6.29,0,0,0,2.34,1.69q1.48-1.06,1.06-2.19a9.58,9.58,0,0,0-1.22-2.24q-0.8-1.11-1.59-2.1A1.89,1.89,0,0,1,329,211a18.41,18.41,0,0,1,.36,3q0.05,1.52,2.06.94l7.21,97.68L342.3,416.5a10.92,10.92,0,0,0-3.76,1,7.7,7.7,0,0,1-4.54.54l1.8,0.7q-0.08-2.27,0-4.55a17.39,17.39,0,0,1,.73-4.58,7.6,7.6,0,0,0-3.59,2.4,5.34,5.34,0,0,0-.92,2.56,11.48,11.48,0,0,0,.08,2.4,2.2,2.2,0,0,1-.57,1.92q-0.76,0,0-.63a0.83,0.83,0,0,0,0-1.39q-1.26,0-1.19,2.07-1.26,0-.39-0.24t2.37-.84l2.62-1q1.12-.42.85-0.92a3.21,3.21,0,0,1-1.49.81,8,8,0,0,0-2.72,1.87,2.18,2.18,0,0,0,1.54.71l1.52-.05a44.88,44.88,0,0,1-4.92.43,6.24,6.24,0,0,1-4-.87q-2.77.35-6.44,0.48l-5.69.2q-2,.07-1.91-0.44a1.49,1.49,0,0,0-.68-1.24,12.68,12.68,0,0,0-1.09,1.3q-0.36.52-2.38,0.59t-2.42-.42a12.72,12.72,0,0,0-1.18-1.22,7.73,7.73,0,0,0-.71,1.42,4.4,4.4,0,0,1-1,1.43l-7.08.25q-0.25,0-.06-1.77t0.26-3.43a2.86,2.86,0,0,0-.45-2.14q-0.52-.49-2,2.09a0.65,0.65,0,0,0-.28-0.88q-0.52-.36.27,0.37a6.76,6.76,0,0,0,1.2-1.81,6.75,6.75,0,0,1,1.2-1.81q-0.78-.73-0.3-1.26t-0.3-1.25a6.89,6.89,0,0,0-2.47,1.73q-0.73.91-2.19,2.48-0.76,0-.65-0.61a1.61,1.61,0,0,0-.68-1.37l-0.51,0a0.51,0.51,0,0,0-.37.14,1,1,0,0,1-.63.15,25.41,25.41,0,0,0-2.72,5.41q-1.28,3.33-3.3,3.4-1.77.06-4.94-.08a16.5,16.5,0,0,0-5.17.43,1.58,1.58,0,0,1-.45-1.88,7.8,7.8,0,0,0,0-3.16q-1.52.05-1.75,0.57a12.35,12.35,0,0,1-.71,1.29,3.3,3.3,0,0,1,.45,2.14q-0.08,1.39-.05,2.15a30.15,30.15,0,0,0-6.1-.67q-3,0-5.83-.18a2.93,2.93,0,0,1-.78-0.48,1.48,1.48,0,0,0-1.23,1.06l2.15-3.62L255,416.77a3.48,3.48,0,0,0-1.83,2,6.43,6.43,0,0,0-.54,2.68l-4.8.17q0.75-.28,2-0.83a5.93,5.93,0,0,0,2-1.33q-0.78-.73-0.42-1.25T251,416.91a5.78,5.78,0,0,0-2.59,2,15.64,15.64,0,0,0-1.79,3,1,1,0,0,1-1-.85q-0.28-.88-2.31-0.81a4.76,4.76,0,0,0-1.76.19l0,0.88a15.8,15.8,0,0,0,0-3.29q-0.16-1-2.7-1.17a7.06,7.06,0,0,0,3.85-2.16q1.83-1.84,1.68-6.13,0-.51-0.36.52a1.26,1.26,0,0,1-1.1,1.05q-0.25,0-.19-1.89a2.92,2.92,0,0,0-2-2.84,6.15,6.15,0,0,0-2.59,1.86,31.94,31.94,0,0,0-2.53,3.63,1.45,1.45,0,0,0,1.9.06,8.52,8.52,0,0,0,1.85-1.46,10.68,10.68,0,0,1-1.92,2.85l-2.68,2.88a3.83,3.83,0,0,1-.09,1.14,1.4,1.4,0,0,0,.67,1.12l2.21-1.85a5.22,5.22,0,0,0-1.45,2.07,5,5,0,0,1-2.2,2.35,1.4,1.4,0,0,1,.67,1.12q-0.11.38,1.91,0.31t2.37-1a1.14,1.14,0,0,1,.85-0.92q-0.48.78-1,1.68a1.25,1.25,0,0,0,.31,1.63q-5.05.18-11.39,0t-11.9-.22a0.73,0.73,0,0,1,.24-0.51,0.52,0.52,0,0,1,.11-0.38,0.51,0.51,0,0,0,.11-0.38,1.65,1.65,0,0,0-2.13.58q-0.6,1-2.62,1.1a16.4,16.4,0,0,0-3.65.63,18.22,18.22,0,0,1-4.15.65,6.29,6.29,0,0,1-2.28-.17,1.91,1.91,0,0,1-.78-0.61,6.2,6.2,0,0,1-.4-0.62,1.43,1.43,0,0,0-1.15-.21,24.25,24.25,0,0,0-3.66.38,20.72,20.72,0,0,1-3.15.36,20.11,20.11,0,0,0,2.57-2.62,9.21,9.21,0,0,0,2.25-4.38,11.09,11.09,0,0,0-3.69,2.91,24.94,24.94,0,0,0-3.39,4.42q-0.51,0,1.26-.17A33.61,33.61,0,0,0,195,423q2-.45,3.51-0.88t0.73-.91q0.2-1.52-1.74-2.72a41.37,41.37,0,0,0-4.51-2.37q-2.57-1.18-4.76-2.11T186,412.35a1.33,1.33,0,0,1,1.16.47,12.54,12.54,0,0,0,1.18,1.22,6,6,0,0,1,2.85-1.74,16.32,16.32,0,0,1,3.65-.51q1.77-.06.8,1.11t-0.19,1.9a5.1,5.1,0,0,0,3.48-1.89l0.6-4.58q-1.56-1.21-3.51.88a5.92,5.92,0,0,0,1.19-2.07,5.94,5.94,0,0,1,1.19-2.07l-0.12-3.54-1.58-1.72a23.66,23.66,0,0,0-1.57,5.62,3.19,3.19,0,0,1-1.85,1.33q-1.13.29-2,.58a1.93,1.93,0,0,0-1.23,1.06,3.31,3.31,0,0,0,.47,2.51,12.48,12.48,0,0,0-2-2.71,3.48,3.48,0,0,0-2.7-1.17l-0.13-3.79a9.72,9.72,0,0,1,2.17.43q1.66,0.45,3.7.88a5.13,5.13,0,0,0-2-3,24.81,24.81,0,0,1-3-2.43l12.64-.44-2.47,1.86q1.21-1.56,2.54-3.38t0.22-4.56a14.68,14.68,0,0,0-3.44,2.9L191.91,400l-0.05-1.52A2.19,2.19,0,0,0,191,397l-3.42,3.66,1.57,1.46a2,2,0,0,0,.75-0.28,3.88,3.88,0,0,1,1.5-.56l0.06,1.77a2.73,2.73,0,0,0,.83,2l1.47-1.32a6,6,0,0,0-2.44,2.62,5,5,0,0,0-.3,2.41,7.18,7.18,0,0,0,.84,2.37,6.14,6.14,0,0,1,.73,2.76,4.76,4.76,0,0,0,1.07-1.94,4.77,4.77,0,0,1,1.07-1.94,28.5,28.5,0,0,1-3,5.42,15.8,15.8,0,0,1-2.55,3.13l1.57,1.46,2.21-1.85a11,11,0,0,0-2,3.23,8.21,8.21,0,0,0-.77,3.44l-7.33.26-1.32-37.66a3.64,3.64,0,0,1,2.21,1.57,6.16,6.16,0,0,1,.84,2.37,19.63,19.63,0,0,0,.6,2.76,7.72,7.72,0,0,0,1.75,3,13.16,13.16,0,0,0,2.1-1.46,6.54,6.54,0,0,0,1.8-2.72,2.28,2.28,0,0,0,2.07,1.45,6.3,6.3,0,0,1,2.81.66q0.22-1-1.59-2.1a30.05,30.05,0,0,0-4.12-2,39.36,39.36,0,0,1-3.86-1.76q-1.55-.83-0.31-1.63a45.34,45.34,0,0,1-1.27-7.29,37.24,37.24,0,0,1,0-7.59,5.46,5.46,0,0,1,2.08-2.1,2.3,2.3,0,0,0,.77-3.32,5.48,5.48,0,0,1-1.72,1.58q-1.24.8-.51,0l13.6-2a40.17,40.17,0,0,0-3.66,3.92q-1.46,1.82-3.41,3.92a1.22,1.22,0,0,0,1.77-.06,16.55,16.55,0,0,0,1.72-1.58,26.16,26.16,0,0,1-.13,3.42,5.77,5.77,0,0,0,.62,3.39,1.07,1.07,0,0,1-1,0,2.83,2.83,0,0,1-1.55-1,7.1,7.1,0,0,0-1.67,2.84,4.17,4.17,0,0,0-.21,1.27,7.8,7.8,0,0,0-1-5.79,6.44,6.44,0,0,0-1.46,1.57,2.2,2.2,0,0,0-.59,1.16q-0.1.64,0.92,0.85a5.85,5.85,0,0,0-2.06,2.73,5.13,5.13,0,0,0-.25,3.68,7.47,7.47,0,0,1-2-2.59,3.79,3.79,0,0,1-.2-2.14,16.11,16.11,0,0,0,.3-2.16,7.82,7.82,0,0,0-.21-2.4,1.89,1.89,0,0,0-1.9.07,3.72,3.72,0,0,0-1.6,1.32,28.48,28.48,0,0,1,.33-5.07q0.41-2.8,1.06-5.86l-2,2.09a16.4,16.4,0,0,0,.21-4.94q-0.24-3.15,3.19-6.56l-1.57-1.46-2,2.09a2,2,0,0,1,.81-2.05q1.1-1.05,2.57-2.62a1,1,0,0,0-1.52-.07q-0.74.66-1.47,1.44l3.87-5.2-1.26,0a17.13,17.13,0,0,1-2,.45,0.93,0.93,0,0,0-1,.92,2.62,2.62,0,0,0,.16-2.54,9.87,9.87,0,0,0-.55-1.25,2.77,2.77,0,0,0,1.8.82q1.53,0.33,3.32.77l1.46-1.57a6.74,6.74,0,0,0-1.81-1.2,1.4,1.4,0,0,0-1.76.31,3.72,3.72,0,0,1,1.11-.92,2.81,2.81,0,0,1,1.66.57l0.63-3.57a1.25,1.25,0,0,0-1.65-.2,1.47,1.47,0,0,0-.84,1.29,3.64,3.64,0,0,0-1.35-2.48q-1.77.06-1.72,1.58a6,6,0,0,0-.31-1.63q-0.28-.88,1.74-0.95a5.39,5.39,0,0,0,2.76-.6,2.42,2.42,0,0,0,1-1.43q0.22-.89.44-1.91a5.7,5.7,0,0,1,.94-2.06l0-1.26-2.42,3.12-2.4.08q-0.88,0-.15-0.75l5.85-6.28q0.76,0,.65.61a1.61,1.61,0,0,0,.68,1.37,1.26,1.26,0,0,0,1.1-1.05q0.34-1,.58-1.54,0.76,0-.89-0.1t-3.68-.25a25,25,0,0,1-3.43-.51q-1.4-.33-0.67-1.12l14.4-7.84a45.07,45.07,0,0,1-2.65,3.89q-1.21,1.56-2.67,3.13l-2,2.09q-3,1.62-5.72,3t-4.73,2.19l4.62-5.48v-0.25a1.46,1.46,0,0,0-.54-1l-4.16,3.94a7.56,7.56,0,0,0,.13-3.42,24.7,24.7,0,0,1-.36-3.15,1.33,1.33,0,0,1,1.15.47,12.65,12.65,0,0,0,1.18,1.22A5.05,5.05,0,0,0,183,323.5q0.07-1.65,0-3.92l-3.9,4.19a6.29,6.29,0,0,0,.14-3.17,30.65,30.65,0,0,1-.39-4,10.31,10.31,0,0,1,.74-4.2,8,8,0,0,1,3.29-3.66,21,21,0,0,0,3,2.3,7.14,7.14,0,0,1,2.49,2.57,3.85,3.85,0,0,1,1.14.09,1.4,1.4,0,0,0,1.12-.67q-1.54-.71-1.76-3.23a7.31,7.31,0,0,0-2.57-4.72q1.71-1.83,3.27-.62,0.74-.53.27-3.17t-2.24-2.58q-1,0-.88.28a6.26,6.26,0,0,0,.4.62,6.28,6.28,0,0,1,.4.62q0.13,0.25-.88.28-2,.07-2.06-0.94t-0.79-1l-1.22,1.31a3.18,3.18,0,0,0-.71,1.29,0.73,0.73,0,0,1,.27.5,1.46,1.46,0,0,0,.29,1,22.68,22.68,0,0,0-1.51,3.72,24,24,0,0,1-2,4.5,4.21,4.21,0,0,1,1.42-2.83q-0.07-2-1.78-.19a9,9,0,0,0,.33-5.07q-0.59-2.26-.9-4a4.06,4.06,0,0,1,.4-2.92q0.72-1.16,3.73-1.77a3.12,3.12,0,0,0-.82-1.74q-0.79-1-1.33-1.73a7.61,7.61,0,0,1,.21-1.27,8.84,8.84,0,0,0,.18-2.16,4.74,4.74,0,0,0-.58-2.13,2.54,2.54,0,0,0-2.07-1.19l-2.22-63.44a1.78,1.78,0,0,0,1.86-1.08q0.34-1,2.37-1.1t2.28-3.62a62,62,0,0,0,.15-6.58,7.74,7.74,0,0,0-3.45,2.65q-1.7,2.08-3.16,3.65a11.87,11.87,0,0,1,.58-5.08,26.29,26.29,0,0,1,2.58-5.91,26.67,26.67,0,0,1,4-5.2,10.27,10.27,0,0,1,4.58-2.94q-1.46,1.57-.16,2.79l2.19-2.61a6.76,6.76,0,0,1-1.33-1.72,5.88,5.88,0,0,0-1.06-1.48,5.77,5.77,0,0,1-2.12.83,4,4,0,0,0-2.11,1.09,4,4,0,0,1,1.69-2.34q1.24-.8-0.92-4.52a3.82,3.82,0,0,0-1.21,1.56,2,2,0,0,1-2,1.08,4.92,4.92,0,0,0,1.08-1.81q0.34-1-1.17-1l1.94-2.35a4.56,4.56,0,0,0-2.05-.81,14.82,14.82,0,0,1-3.07-1,7.88,7.88,0,0,0,1.7-2q1-1.43.18-2.16l4.3-.15q-1.52.05-1.45,1.82l1.58,1.72q1.71-1.83,2.57-2.62a4,4,0,0,1,2.24-1,27.9,27.9,0,0,1,3.79-.13,54.58,54.58,0,0,0,7.44-.64,16,16,0,0,1-2.53,3.63,21.4,21.4,0,0,0-2.54,3.38q-0.07-2-1.84-2-1.71,1.83.38,3.53l-6.46,6.93a88,88,0,0,1-8,7.49q0.27,0.5,3.07.91t5.72,0.69q2.92,0.28,5.07.33t1.14,0.09L191,200.87a5.42,5.42,0,0,0-3.39,4.42A6.76,6.76,0,0,1,189,207a6.73,6.73,0,0,0,1.33,1.72q0.73-.78,1.83-1.84a3.24,3.24,0,0,0,1-2.57q0,0.51-2.37.84l-5,.68q-2.64.35-4.91,0.8t-1.75.69q3.63-4.68,7.87-10.27a89,89,0,0,1,9.13-10.31l3.54-.12a7.12,7.12,0,0,1-.08,1.39q-0.1.64,1.92,0.57l5.06-.18,0,0.76a2.07,2.07,0,0,0,.8,1.24l2-2.09a4.09,4.09,0,0,0,2.31.93,15.53,15.53,0,0,0,2,.18,5.78,5.78,0,0,1-1.8,2.72q-1.35,1.19-2.81,2.76a0.22,0.22,0,0,0-.24.26,2.38,2.38,0,0,0,.79,1,29.25,29.25,0,0,1,4.8-3.71,31.59,31.59,0,0,1,5.6-2.73,0.73,0.73,0,0,0,.5-0.27l0.47-1q-1.06-1.23.14-3.29t0.14-3.29q0.23-.51.83-1.55a4.69,4.69,0,0,0,.54-2.55,11.9,11.9,0,0,0-5.87,5.77,2.11,2.11,0,0,0,1.42.71l1.39,0a3,3,0,0,0-.82,1.8q-0.09,1-1.86,1.08a13.57,13.57,0,0,1-5.36-1.33,13.57,13.57,0,0,0-5.36-1.33q-2,.07-2.5.85a2,2,0,0,1-1.74.82,2.32,2.32,0,0,0,2.51-.72,12.48,12.48,0,0,1,2.71-2,4.74,4.74,0,0,0,2.75-1,21.5,21.5,0,0,0,2.7-2.5,14.94,14.94,0,0,0-4.65.8,12.88,12.88,0,0,0-3,1.5,5.84,5.84,0,0,0-1.59,1.57,1.49,1.49,0,0,1-.73.79,27.18,27.18,0,0,1-2.91,0,17.73,17.73,0,0,0-1.9-.06,8.88,8.88,0,0,1,2-3.61q1.58-1.83,3-3.4l63.69-2.22q1,0,1,.34l0,0.76,0,0.63q0,0.25,1,.22,2-.07,1.87-0.82t1.39,0l1.83,1.71,2.71-2.12q3.78-.39,6.56-0.48l4.68-.16q2.15-.08,2.16.18,0.74-.53-0.11.51a2.12,2.12,0,0,0,0,2.53l3.65-4.18a49.86,49.86,0,0,0,8.11.48,27.07,27.07,0,0,1,6.6.53l-4.94,3.46,1.94-2.35-1.57-1.46q-4.68,3.71-12.37,4.61t-14.72,2.41a1.24,1.24,0,0,1,.59-1.16,2.11,2.11,0,0,0,.57-1.92,76,76,0,0,0-7.41,5.07,35.14,35.14,0,0,0-8.26,9.9l-0.24.26q0,0.25,1.78.19a6.06,6.06,0,0,0,2.62-1,34.57,34.57,0,0,0,3.21-2.14q1.6-1.19,2.83-2.25t1.47-1.32a1.94,1.94,0,0,1,1.36-.93,13.28,13.28,0,0,0,1.76-.44,2.93,2.93,0,0,0,1.24-.68q0.37-.39-0.44-1.63,0.78,0.73.42,1.12l-0.85.92a4.21,4.21,0,0,0-.83,1.67,6.84,6.84,0,0,0,.25,3.41,14.3,14.3,0,0,0,2.82-2.63,8,8,0,0,1,3.08-2.39l-5.6,6.27,1.18,1.1a4.3,4.3,0,0,0,2.41.3q1.77-.06,3.32-2.77a13.35,13.35,0,0,1,3.77-4.31l-5.84,6.78a0.22,0.22,0,0,0-.24.26,2.38,2.38,0,0,0,.79,1,81.42,81.42,0,0,0,6-6,66.34,66.34,0,0,0,5-6.25q-1.44,2.33-3.36,5.18a65.67,65.67,0,0,1-4.11,5.46,3,3,0,0,0,1.8.82q1,0.09,1.07,1.61a5.86,5.86,0,0,1,3.35-1.89,29.61,29.61,0,0,1,3.91-.39,3.5,3.5,0,0,1,2.17.43,4.66,4.66,0,0,0,2.67.41,3.4,3.4,0,0,0,3-1.62,6.08,6.08,0,0,1,3.21-2.39l9.29-9.43a47,47,0,0,1-4.61,5.73,54.3,54.3,0,0,0-4.85,6,1.4,1.4,0,0,0,1.16.59,12.05,12.05,0,0,1,2.4-.21q1.77-.06,1,0.6a0.83,0.83,0,0,0,0,1.39,50.3,50.3,0,0,0,4.17-3.82,33.29,33.29,0,0,0,3.65-4.3,6.24,6.24,0,0,0,1.39-3.59q-0.05-1.52-2.34-1.69a4.34,4.34,0,0,0,.27-3.17,17.59,17.59,0,0,1-.5-3.4,8,8,0,0,0,2.38-.59,1.3,1.3,0,0,1,.5-0.27l0.63,0,2.78-.1a2.38,2.38,0,0,0-.72,1,2.38,2.38,0,0,1-.72,1,7.4,7.4,0,0,1,2.65,3.45q0.73-.78.47-1.15t0.47-.9a5.31,5.31,0,0,0-1.68,2.72,10.72,10.72,0,0,0-.4,3.18,16.24,16.24,0,0,0,.35,2.9,8.07,8.07,0,0,0,.57,1.88q-0.74.53-.48,0.65a6.24,6.24,0,0,1,.65.36l0.39,0.24-0.76,0q-1.77.06-2.19-1.06a20.78,20.78,0,0,0-1.23-2.61,9,9,0,0,0-3.31,3.15q-1.32,2.07-2.76,4.4l1,0.72a1.72,1.72,0,0,0,1.91.31,13.94,13.94,0,0,1,3.9-.52l0,0.76a2.19,2.19,0,0,1-.71,1.54,4,4,0,0,0,1.55,1,4,4,0,0,1,1.55,1q-2.18,2.86-1.59,5.24a16,16,0,0,0,2.46,5.1l2.21-1.85-2.67,3.38a2.07,2.07,0,0,1,.8,1.24,2.07,2.07,0,0,0,.8,1.24l-4-6.44q-0.51-.23.61-0.53a11.06,11.06,0,0,1,2.39-.34l2.15-.07h0.13a7.41,7.41,0,0,0,2.11-4.88,32.47,32.47,0,0,0-.55-4.79,35.79,35.79,0,0,1-.56-5.29,12.08,12.08,0,0,1,2.05-6.4,0.22,0.22,0,0,0,.24-0.26,1.46,1.46,0,0,0-.54-1l-2.21,1.85a5.81,5.81,0,0,0,.9-3.32,10.33,10.33,0,0,1,.39-3.3q0.5-.27.11-0.38a6.8,6.8,0,0,1-.9-0.35,0.81,0.81,0,0,1-.53-0.74,3.72,3.72,0,0,1,1.2-1.81l-3.66,3.92a0.22,0.22,0,0,0-.24.26,2.38,2.38,0,0,0,.79,1l5.86-6Zm-156.92-.59-2.44,2.62-1-1,2.44-2.62Zm42.62,10.15-4.8.17-0.06-1.77,4.8-.17Zm105,5.7,1.81,8.29-0.79-1L323.65,194ZM300.85,418l-2.45,2.36-1-1L299.8,417Z" transform="translate(-173.63 -173.15)"/><path class="a" d="M491.82,249l-13.74-1.41a43.67,43.67,0,0,1-3.27,5.14l0.3-3.39a8.91,8.91,0,0,1,1.19-3.63c0-11.38,1.48-22.3,2.7-33.16a5.52,5.52,0,0,1,1,.18,4.89,4.89,0,0,0,.1-1.26c0-.1-1,0.13-1,0l0.17-1.57c0-.23.33-0.4,0.35-0.64,0.32-3,.31-5.69.52-8.52,0-.29,2.31,1.08,2.42.23l0.45-3.31c0.06-.41-2.68.39-2.66,0,0.05-.77.08-1.35,0.13-2.32,0-.21,1.43.43,1.7,0.19a2,2,0,0,0,.3-1.82c-0.18-.35-1.9-0.84-1.89-1.09,0-.8,0-1.23.05-2.41q0.06-4.31.26-6.66a3,3,0,0,0,1.31,1.08,3,3,0,0,1,1.31,1.08l2.65-3.07a9.79,9.79,0,0,1,3.74.62q1.14,0.55,3.81-.16a0.84,0.84,0,0,0-.67.24,5.37,5.37,0,0,0-1.17,1l1.37,1.61a30.4,30.4,0,0,1,2.83-1.36,7.62,7.62,0,0,1,3.19-.57,3.57,3.57,0,0,0,2.32-.46,3.58,3.58,0,0,1,2.32-.46q1.73,0,1.73,1.22a3.31,3.31,0,0,0,.58,2,15.32,15.32,0,0,1,1.88-1.65q1.16-.89,1.09-0.1a1.5,1.5,0,0,1,.64,1.32q-0.15.52,1.57,0.56a2.21,2.21,0,0,0,2.25-1,2.21,2.21,0,0,1,2.25-1,5.43,5.43,0,0,0,2.53-.46,6,6,0,0,1,2.75-.45q1.73,0,1,.68a1,1,0,0,0-.13,1.43,3.81,3.81,0,0,0,1.92-.86A3.81,3.81,0,0,1,526,184a1.56,1.56,0,0,1-.67.24,1.83,1.83,0,0,1-.56.25,1.77,1.77,0,0,0-.59.51,13.47,13.47,0,0,1,1.41,1.21q1,0.94,2.31-1.64-1.2,1.28,1.83,1.36,1.73,0,1.71.31a4.62,4.62,0,0,0,.79-1.55,16.14,16.14,0,0,1-1.1,1.41q-0.36.38,0.37,2a15.42,15.42,0,0,1,1.88-1.65,6.94,6.94,0,0,0,1.95-2.43,2.84,2.84,0,0,0,.73,1.59,15.71,15.71,0,0,1,1.5,2.65,23.91,23.91,0,0,0,2.88-1.89,5,5,0,0,1,3.24-1.09q0.86,0,.83.41l-0.07.78-0.06.65q0,0.26.84,0.28,1.73,0,1.25-.62a2.09,2.09,0,0,1-.41-1.45l0.82,0.54a2.88,2.88,0,0,0,1.47.56,6,6,0,0,1-1.07,2.33,6.78,6.78,0,0,0-1.14,3.11,2.83,2.83,0,0,0,1.74-1.26q1.09-1.28,1.81-2a3.77,3.77,0,0,1-.5,1.95q-0.36.38,0.87,1.2l1-1a2.61,2.61,0,0,0,.28-2,8.16,8.16,0,0,1-.13-2.23l0.26-.52a1.88,1.88,0,0,0,.38-0.64,2.85,2.85,0,0,1,.62-0.9,4.7,4.7,0,0,1,2.6,1.25,4.85,4.85,0,0,0,2.81,1.25L553,192.33l0,0.52a2.33,2.33,0,0,0,.56,1.06q2.85-2.8,5.37-5.61t5.19-1.17a4.47,4.47,0,0,0-.74,1,3,3,0,0,0-.81,1.81q-0.22,0-.17-0.53a0.94,0.94,0,0,1-.16-0.66,1.45,1.45,0,0,0-.35-0.92q-1.27,2.06-1.77,2.83t0.44,2.37a12.38,12.38,0,0,1,3.07-1.62,7.29,7.29,0,0,0,2.88-1.89l0-.26a1.88,1.88,0,0,0-.32-1.32l-2.32,1.77a4.58,4.58,0,0,0,1-2.46q0.26-1.69.33-2.48a28.3,28.3,0,0,1,7.7,1.12q3.16,1,4.53.25a2.61,2.61,0,0,1,2.56.46l2.66,1.77,3.28-2.79a17.68,17.68,0,0,1-1.3,1.27q-0.59.51,1.14,0.55a17.12,17.12,0,0,0,4.73-.79,17.46,17.46,0,0,1,4.94-.79,3,3,0,0,1-1,1,22.75,22.75,0,0,0-2.8,2.28,2.71,2.71,0,0,0,2,.71,21.73,21.73,0,0,1,2.71-.06,2,2,0,0,0,2.06-1.25A8.55,8.55,0,0,0,599,186l5.84,0.15a7.27,7.27,0,0,1-1.76.35,2.75,2.75,0,0,0-1.81.87l1.25,1.73a2.88,2.88,0,0,0,2.4,1q1.73,0,1.79.57t0.52,0.28l-0.09,1a2.84,2.84,0,0,0-.31,1,7.47,7.47,0,0,1-1.29,1.14q-0.57.38,0,.92a1.29,1.29,0,0,1,.52,1.45,3.15,3.15,0,0,1-.82,1.94,2.33,2.33,0,0,1-.6-0.54,3.2,3.2,0,0,0-1-.55q-1.79,3.09-1.79,10.41a2.63,2.63,0,0,0,.79-1.55l0.14-1.57a1.51,1.51,0,0,0,1.67.7,5.26,5.26,0,0,1,2.56.46l1.65-1.53a3.23,3.23,0,0,0-2.35-1.63,2.11,2.11,0,0,1-1.77-.83,7,7,0,0,0,3.13-1.09,7.08,7.08,0,0,1,3.35-1.09,1.92,1.92,0,0,0,.39-2,3.22,3.22,0,0,1,0-2,17,17,0,0,1,2.26-3.47,22.73,22.73,0,0,0,2.78-4.5l0.14-1.57,3.89,0.1c2.53,7.85-1.28,5.78,2.91,3.87,1.83-.84,3.64-3,0.09,1.44a5.83,5.83,0,0,0-1.36,3.1,6.91,6.91,0,0,0-2.6-2.42,36.42,36.42,0,0,0-3.73-1.93,2.1,2.1,0,0,1-.55,1.29L614,192.9a7.75,7.75,0,0,1,1.4,3.7q0.25,2.1,2,2.14,1.51,0,.81.68a1,1,0,0,0-.13,1.43,44.88,44.88,0,0,0,6.78-8.06c1.84-2.83,4.14-2.92,5.14-4.18l1.62-2.05,0.51,1.6c3.63,0.24,3.65-1,.23,3.13l-0.26.52a1.86,1.86,0,0,0,.56,1.06l3.61-4.09c-1.2,11.47-3,29.29-5.18,50-0.08.8-3.4,1.36-3.57,2.89-0.08.76-.16,3.07,1,4.08,0.67,0.6,2-.66,1.87.22-1.82,17.62-3.81,37-5.78,56.08-0.06.54-.84,0.07-1.05,0.45a12,12,0,0,0-.91,3.26c0,0.46,1.53.47,1.46,1.23-6.47,62.76-12.55,121.42-11.29,107.21q0.2-2.22-1.65-1a3.29,3.29,0,0,1,1-1.8l1.67-1.79a2.13,2.13,0,0,1-.53-1.32,2.13,2.13,0,0,0-.53-1.32,9.83,9.83,0,0,1-1.64,1.39,5.07,5.07,0,0,0-1.42,1.4,4.15,4.15,0,0,1-.82,3.12c-5.39,8.56-1.41.33-.45-1.06a3,3,0,0,0-2.5-1.11,16.23,16.23,0,0,0,3.31-4.36c0.79-1.55-3.64,11.57-3.07,10,0.53,0.54,6.17-13.92,6.53-13a10.12,10.12,0,0,0,1.11,2.12l0.24-.26a0.88,0.88,0,0,0,.26-0.52,2.44,2.44,0,0,1,.29-0.78,13.51,13.51,0,0,1,.71-4.3,27.18,27.18,0,0,0,1-5.6,1.6,1.6,0,0,1-1.22-.95q-0.57-.93-1.28-0.16a5.7,5.7,0,0,1,1.77-2.83l0-7.58a5.27,5.27,0,0,0-1.57,3.1,2.69,2.69,0,0,0-2.45-.46,34.85,34.85,0,0,0-3.46,1.09,14.15,14.15,0,0,0,1.66,4.49,7.48,7.48,0,0,1,1,4.47,1,1,0,0,0,1.37.43,1.36,1.36,0,0,0,.86-1.15,15.29,15.29,0,0,1-.54,2.47,17.82,17.82,0,0,0-.61,3.25,5.7,5.7,0,0,1-.83-1.59,5.73,5.73,0,0,0-.83-1.59c-0.78.68-2.15,1.58-2.34,3.21-0.15,1.24-3.95,11.51-3.48,12.19l-0.89,12.74c0,1.16-126.47-14.06-125.29-12.43a14.39,14.39,0,0,1,1,1.73L476,414.4c0.7-8-5.34-5.28-3.77-1.41a4.58,4.58,0,0,0,1.76,2.14,5.59,5.59,0,0,1-2.88.71q-1.51,0-1.44-.82a9.43,9.43,0,0,1,.38-1.82q0.31-1-1.42-1.08a4.17,4.17,0,0,0-2.33.59,17.23,17.23,0,0,0-2.44,1.9c0.74-1,24.73-36.5,7.63-31.05a18.48,18.48,0,0,0-3.26,1.35,4.66,4.66,0,0,1,1.88-2.83q1.26-.75,2.23-4.39c13.93,0.37,5.18-17.83,5-19.32a25.47,25.47,0,0,1,0-5.89q-1.9-.57-2.22,3.08a10.85,10.85,0,0,1-3.74-.62,14.3,14.3,0,0,0-4.6-.64,8.84,8.84,0,0,1-.53-5q0.39-3.13,1.12-6.51t1.67-6.63q0.94-3.24,1.55-5.32a1.91,1.91,0,0,0-.65-1.19,6.22,6.22,0,0,1-1.08-1.21l4.32,0.11a15.41,15.41,0,0,0-.55,6.26,16.74,16.74,0,0,1-.58,6.52q1.23,0.82.64,1.32t1.29,1.34q0.72-.77,1.57-1.79a2.17,2.17,0,0,1,1.5-1q1.07,2.64,3,3c4.23,0.69,16.7-24.44,1.6-8.33l-1.45-2a2.57,2.57,0,0,0-1.3-1.21q-1.08,0-.3-1.45t1.59-3.23a2.13,2.13,0,0,1-.53-1.32,2.14,2.14,0,0,0-.53-1.32l-3.09,3.06,4.62-5.63q-1.93-2.67-4.31-2.73a9.91,9.91,0,0,0-1,3.64l-0.32,3.65q-1.95-.05-2.33-0.58t-3.7.16a9.9,9.9,0,0,0,.57-1.55,10,10,0,0,0,.39-2,1.45,1.45,0,0,0-.22-1.18q-0.3-.27-1,0.76a13.4,13.4,0,0,0,1.17-3.37q0.38-1.82.86-3.64a20.32,20.32,0,0,1,1.29-3.5,7.49,7.49,0,0,1,2.64-2.94,6.14,6.14,0,0,1-1.84,3.61q0.58,0.8-.44.12t0.25-.39a5.78,5.78,0,0,1,3,1.91q0.66,1.06,1.12,2a4.18,4.18,0,0,0,1.48,1.61,8.52,8.52,0,0,0,4,.76,1.15,1.15,0,0,1,.85.15l0,0.39,0,0.39a1.15,1.15,0,0,0,.85.15c5.7,0.15,2.86-7.42,2-10.15q0.55-1.29-.77-3.55a20.43,20.43,0,0,1-1.83-3.84,3.51,3.51,0,0,1,2-1,13.32,13.32,0,0,1,2.62-.19,38.57,38.57,0,0,1,1.38-7,35.34,35.34,0,0,0,1.29-6,36.73,36.73,0,0,0,.07-4.44,40.22,40.22,0,0,1,.11-5,7.35,7.35,0,0,0-2.27-1.24,3.18,3.18,0,0,0-2.63.32l-1-3.69a5.52,5.52,0,0,1,1.85-1.26,2.25,2.25,0,0,0,1.26-2.06q1.3,0,2.65,1.9a16.79,16.79,0,0,0,.78-2.73q0.21-1.17-1.69-1.74a1.75,1.75,0,0,0,.89-0.24,2.4,2.4,0,0,0,1-2.06q0.16-1.83.39-3.13a11.05,11.05,0,0,0-.22-3.67,9.83,9.83,0,0,0-3.88,3.43,25.13,25.13,0,0,1-3.3,4.23,2.88,2.88,0,0,0,1.64,1.09,2.88,2.88,0,0,1,1.64,1.09,7.64,7.64,0,0,1-1.52,1.27,7.67,7.67,0,0,0-1.52,1.27q-0.65,0-.87-1.2a4.86,4.86,0,0,0-.8-2,1.59,1.59,0,0,0-.62.9,3.4,3.4,0,0,1-1.63.09,2.29,2.29,0,0,1-2.15-1.36,7.4,7.4,0,0,1-.72-2.9q-1.15.75-.2,1t-0.32,0a1,1,0,0,0-.24,1.43l1.06,1.47a5.22,5.22,0,0,0-2,.6q-1.36.62-1.91-.44a0.78,0.78,0,0,0-.17-0.53,1.09,1.09,0,0,0-.82-0.54l0.37-4.17a3,3,0,0,0,2.5,1.11q1.91-2,1.5-3.49a7,7,0,0,1-.32-2.49,0.94,0.94,0,0,0,.18-0.78,1.69,1.69,0,0,0-.25-0.79,0.77,0.77,0,0,1-.17-0.53q0-.26.89-0.24a6,6,0,0,1,3.52,1.79,15.82,15.82,0,0,0,3.89,2.59,55.78,55.78,0,0,1,4.24-6.3q1.95-2.43,4.17-5.51a4.48,4.48,0,0,0-1-1.07q-0.41-.27-1.13.49m59.71-45.5-1.45,4.15-1.23-.82,1.38-3.36ZM464.61,403.38a4.74,4.74,0,0,0-.37-2,4.74,4.74,0,0,1-.37-2q-0.72.77,0.41,2.76a8.29,8.29,0,0,1,1.2,3.56q0.65,0-.47-0.8T464.61,403.38Zm11.46-40.2a21.49,21.49,0,0,0-3.2,1.88q-1.62,1.13-1.47,1.92a6.78,6.78,0,0,1,.94,1.59,2.86,2.86,0,0,0,.36.79q0.54-3.65,1.7-4.53A7.12,7.12,0,0,0,476.07,363.18Zm-3.37-10.81a1.7,1.7,0,0,0-.74-1.46,8.19,8.19,0,0,1-1.39-1.48,2.88,2.88,0,0,0,.7,1.85A2.11,2.11,0,0,0,472.7,352.37Zm5-2.22-0.57,1.55C482.56,355.34,483.06,353.55,477.66,350.14Zm-2.15-75.9-1-.55,3,2.69-3.31.7Zm0.79-21.16a1,1,0,0,0-.27,1.82q1.1,1.08.66,1.06a15.74,15.74,0,0,1-1-1.46,1.18,1.18,0,0,0-1-.68L474.35,258l3,0.08q0.72-.77-0.54-2.5T476.3,253.08Zm8.65-4.74-1.25-.56-1.31,2.58,1,0.55Zm7.79,9.88-0.83-2.9-1.34.49,0.87,2.38Zm116,138.53L609,393.1a5,5,0,0,0-1.27-1.6,1.2,1.2,0,0,0-1.6-.3l-2,.47-0.46,5.22,1.5,1.35a2.67,2.67,0,0,0,1.55.83,18.15,18.15,0,0,0,.05-1.83q0-1,.59-0.51Zm-7.12-17.45,0.14-1.57C598.23,377.64,598.1,379.21,601.59,379.3Zm9.14-2.9a11.67,11.67,0,0,0-3.06,1.49,3,3,0,0,0-1.59,2.05,5.82,5.82,0,0,1,.73,1.59,2.93,2.93,0,0,0,.36.79,6.72,6.72,0,0,1,1.49-3.36Q610,377.17,610.72,376.4ZM609,366.16a6.72,6.72,0,0,1-.94-1.59l-0.34-1.05a1.22,1.22,0,0,1-1.17,1,8,8,0,0,1-1.75.22,4.42,4.42,0,0,1,1,2.9,1.35,1.35,0,0,1,1.32-1.4A18.26,18.26,0,0,1,609,366.16Zm-2.34-10.26L607,352l-1.51,0-0.35,3.91Zm1.19-25.6c-6.66-3-7.91,4.66-3-.6a1.08,1.08,0,0,1,0,.79,6,6,0,0,0-.27.65,0.62,0.62,0,0,0,0,.52,1.8,1.8,0,0,0,1,.16,2.17,2.17,0,0,0,2-.73A1.27,1.27,0,0,0,607.88,330.3Zm13.4,7.68-1-.55L618.93,340l1,0.81ZM539.56,216.3a5.72,5.72,0,0,0-1.17-4l-0.3,3.39c-8.12-1.88-7.14,3-1.45,1.66A11.2,11.2,0,0,0,539.56,216.3Zm-3-4.79-0.29-1.58C532.13,211.66,531.54,213.32,536.52,211.52Zm-15-23.67-0.73-1.59C516.15,189.86,516.62,191,521.51,187.84Zm2.62-.19-0.77-1.07C519.91,190.26,520.68,191.32,524.12,187.65Zm92.67,130.07a3.09,3.09,0,0,1,0-2.48q0.51-.9-0.14-0.92a1.23,1.23,0,0,0-.78.24,7.51,7.51,0,0,1-.8.5l-0.72.77a17.19,17.19,0,0,0,1.47,1.74Q616.72,318.5,616.79,317.72ZM553.3,215.36a2.14,2.14,0,0,1-1.4-1.34,23.1,23.1,0,0,0-1.33-2.13Q551.57,215.31,553.3,215.36Zm10.39-14.63a8.32,8.32,0,0,0-3.07.44,3.18,3.18,0,0,1-.89.24,6.27,6.27,0,0,1-1.89-1.88,7.44,7.44,0,0,0-1.68-1.87,5.92,5.92,0,0,0,1.62-3.62,20.56,20.56,0,0,1-4.21,3.55,29.61,29.61,0,0,1-3.19,1.75q0.49,1.84-.45,2.6c-13.92,4.1-5,3.12-2.87,6.72a6.19,6.19,0,0,0,3.09,3,19.25,19.25,0,0,0,1.28-4.67,11.7,11.7,0,0,1,2.89-5.68,5.41,5.41,0,0,0,.5,2.89q0.64,1.32,1.29,1.34,0.07-.78.28-2t1.94-1.13a2.16,2.16,0,0,1,2.18,1.1,1.77,1.77,0,0,0,1.74,1.09,11.4,11.4,0,0,1,.39-2A4.52,4.52,0,0,1,563.69,200.72Zm8.55,8.59-3-.08L567,211.8a10.59,10.59,0,0,1,1.92.31,3,3,0,0,1,1.85,1.09,4.53,4.53,0,0,0,1-1.93A11.52,11.52,0,0,0,572.24,209.32Zm8,2.3-1.16-1.6-1,1,1.16,1.6Zm23.18,32.46a3.59,3.59,0,0,1-1.77-.83,1.94,1.94,0,0,1-1-1.6,7.36,7.36,0,0,0-.38,4.31,5,5,0,0,1-.31,3.52,9,9,0,0,1,2.08-2.69A4,4,0,0,0,603.46,244.08Zm18.06,22.76,0.32-3.65-1.51,0L620,266.81ZM587.4,209.46a2,2,0,0,1-.3.91,10.08,10.08,0,0,0-.51.9l-0.52,1a1.65,1.65,0,0,0,1.28-1A1.53,1.53,0,0,0,587.4,209.46Zm3.8-6.18a1.8,1.8,0,0,0-.14-0.92,8.51,8.51,0,0,1-.35-0.93l-0.34-1.05a16.89,16.89,0,0,0-5.67-.8,22.28,22.28,0,0,0-6.26,1l2.66-.71a7.45,7.45,0,0,1,1.57,1.87,17.73,17.73,0,0,0-1.05,4.55l-0.27,3a5.94,5.94,0,0,1,3.09-1.88,12.87,12.87,0,0,1,3-.31,1.65,1.65,0,0,1-.47-0.8l-1.62,0q-1.73,0-1.44-.82a6.08,6.08,0,0,0,.35-1.56l1.67-1.79a9.34,9.34,0,0,1,3.3.61A6.5,6.5,0,0,0,591.19,203.28Zm3.25,2.44a1.74,1.74,0,0,0-.89.24l-0.91.5a2.43,2.43,0,0,0-.91.5,4.65,4.65,0,0,1,1,3.16,6.29,6.29,0,0,1,.84-2.2A6.31,6.31,0,0,0,594.44,205.72Zm5.47,6.68a5.83,5.83,0,0,1-.73-1.59,2.65,2.65,0,0,1-.12-1,6.79,6.79,0,0,1-2.89.84,3.22,3.22,0,0,0-2.24.86,3.23,3.23,0,0,0,1.88.83l1.3,0a0.5,0.5,0,0,1,.49.54,7.74,7.74,0,0,1-.29,2.08ZM588.85,193l-1.16-1.6-1,1,1.16,1.6Zm13.27,18.92-0.71-4.2-1.34.49,0.76,3.68Zm6.95,9.6,0.35-3.91-1.51,0-0.35,3.91Zm-14.75-24.19a1.44,1.44,0,0,0-1.17,1,5.12,5.12,0,0,0-.59,1.82q2.18-.2,1.88-0.47T594.32,197.35Zm7.19-2.95-4.11-.11a2.55,2.55,0,0,0,.87,2.38,8.52,8.52,0,0,1,1.59,1.61,3.15,3.15,0,0,0,.82-1.94A3.16,3.16,0,0,1,601.51,194.4Zm26.28,42.75-0.38-2.61-3.08.76,0.26,2.3Zm-11.72-18.83a13.53,13.53,0,0,1-1.42-4.74,10.92,10.92,0,0,0-1.06-4,16.3,16.3,0,0,1-2.31-.84,2.1,2.1,0,0,1-1.09-2.38q0.19-2.09,1.86-1.39a8,8,0,0,0,2.32.72l-1.69-2.92a14.46,14.46,0,0,0-3.1,2,6.72,6.72,0,0,0-2.09,2.82,15,15,0,0,1,3.72,6.9,55.23,55.23,0,0,0,2.19,7.12,14.44,14.44,0,0,0,1.34-1.66A14.39,14.39,0,0,1,616.07,218.32Zm13.15,8.37-2.53-.82-2.64-.31,2.16,1.61ZM627,222l-2-1.36-0.57,1.55,2,1.36ZM624,219.83a5.62,5.62,0,0,0,1.15-1.93,1.58,1.58,0,0,0-.8-2Zm7.94-1.62-1.3,0-1.19,3.63,1,0.55Zm-1.22-5.79-0.77-1.07-2.39,2.55,0.77,1.07Zm3.57-1.21-1-.55-1.31,2.58,1,0.81ZM465.7,413.08l-1.3,0,0.44-5,1.3,0Zm0.09-8.37q0.58,0.8-.51,2.08t-1.81,2a5.39,5.39,0,0,1,.83-2.07A11.92,11.92,0,0,1,465.79,404.72Zm-1.09-2.38a3.87,3.87,0,0,1-.93.76,3.21,3.21,0,0,1-1.56.48,13.77,13.77,0,0,1,.81-5.47,12.57,12.57,0,0,1,2.25-4.65,40.2,40.2,0,0,1-1.87,4Q462.36,399.4,464.7,402.34Zm13.83,15a1,1,0,0,0-.93.76,4.61,4.61,0,0,1-1,1.54,6.13,6.13,0,0,1,.35-1.56A1.43,1.43,0,0,1,478.54,417.35Zm14.93,0.13c0.28,0.5-.13,1.09-1.12,1.67a4.91,4.91,0,0,1-2.13.86,4.15,4.15,0,0,1,.93-1.94,22.25,22.25,0,0,1,1.58-1.92Zm-24.59-44a35.45,35.45,0,0,0,.45,4.82q0.54,2.5-1,2.46-1.73,0-1.85-1.09a1,1,0,0,0-.77-1.07,2.34,2.34,0,0,0-.51,2.08,9.06,9.06,0,0,1,.14,2.1,5.45,5.45,0,0,1-1.66-3.31,16.29,16.29,0,0,1-.12-3.53,40.21,40.21,0,0,1,1.69-8.16,37.38,37.38,0,0,1,3.95-7.87,40,40,0,0,1-1.11,6.38,18.56,18.56,0,0,1-2.33,5.56,1.19,1.19,0,0,0,1.13.68,12.35,12.35,0,0,1,2.28-.07q0.86,0,.68-0.37T469.32,371a5,5,0,0,0-.77-1.07q-0.4-.4,0-0.39l-2,2.56a1,1,0,0,0,.77,1.07A5.17,5.17,0,0,0,468.88,373.45Zm1.83-20.61-2.16-.06,0.16-1.83,2.16,0.06ZM474,333l-1.55,2.84-1-.81,1.31-2.58Zm4,3.25q-0.65,0-1.32,1.4a8.49,8.49,0,0,1-1.38,2.19,1.58,1.58,0,0,1-.84-0.28,5.42,5.42,0,0,1-1.4-1.34q0.72-.77,1.82-2.18t1.75-1.39a2.94,2.94,0,0,0,.36.79A0.93,0.93,0,0,0,478,336.29Zm3.08,1.91C485.77,341.31,480.8,341.65,481.1,338.2ZM475,309.54l-2.71,1.24,0.14-1.57,2.06-1.25Zm0.93-3.11q-1.34.49-.84,0.89t-0.86,1.15l-0.55-6q1.32-.23,1.19,1.21A3.65,3.65,0,0,0,475.9,306.42Zm-5.16-7.72,0.35-3.91a4.84,4.84,0,0,1,.8,2A1.78,1.78,0,0,1,470.74,298.7Zm11,10.23a11.5,11.5,0,0,1-.39,2,4.52,4.52,0,0,1-1,1.93q-0.67.24-1.37-1.6t-1.21-3.43Zm2.91-13.26a3.88,3.88,0,0,0-.79,1.55,12.43,12.43,0,0,0-.56,3.91,14.62,14.62,0,0,1-3.38,1.48,21.48,21.48,0,0,0-3.6,1.47,3.3,3.3,0,0,1,1-1.8,13.51,13.51,0,0,0,1.46-1.79,11.64,11.64,0,0,0,.7-3,8.21,8.21,0,0,1,.91-3q-1.81-1.62-6.05-.16l3.07,4.53A4.58,4.58,0,0,1,475,298a2,2,0,0,1-.54-1.19l-0.1-1.31a1.66,1.66,0,0,0-.87-1.2,4,4,0,0,0,.18-3.26,10.85,10.85,0,0,1-.4-4.06,11.14,11.14,0,0,0,0-3.14,1.91,1.91,0,0,1,.49-1.82,1.33,1.33,0,0,0-.17,2q0.76,1.2,2.07,3.59,0.67-.24.48-0.51a1.24,1.24,0,0,0-.51-0.41,1.45,1.45,0,0,0-.42-0.14l0.76,0a2.34,2.34,0,0,0,2.4-1.38,8.5,8.5,0,0,1,1.39-2.19,5.82,5.82,0,0,1-2-2.27q-0.74-1.46-1.87-3.32a2.42,2.42,0,0,1,.91-0.5l0.91-.5a1.74,1.74,0,0,1,.89-0.24,3.45,3.45,0,0,0-.5.77,6.35,6.35,0,0,0-.64,2.34,12.27,12.27,0,0,1,2.88.47,7.53,7.53,0,0,0,4-.29,1.73,1.73,0,0,1-.76,1.29,2.19,2.19,0,0,1-1.34.49q-0.72.77-.2,1a2.59,2.59,0,0,0,1.17.29,5.15,5.15,0,0,1-1.9,1.91q-1.38.88-2.74,1.63a17.19,17.19,0,0,0,3.68,4.94Q484.84,293.58,484.65,295.67Zm-10-16.22,2.16,0.06,0.16-1.83-2.16-.06Zm11.91,7.38-2.71,1.24L484,286.5l2.06-1.25Zm0.66-5-1.33,2.84-1.23-.82,1.31-2.58Zm-4.46-13.19q-0.65,0-1-1.6t0.25-1.56a2.93,2.93,0,0,1,.36.79l0.34,1.06A3.35,3.35,0,0,1,482.71,268.68Zm-3.65-22.33,0.88,4.73L479,250l-1.1-4.74ZM597.91,408l1.51,0C598.66,414.94,597.13,415.14,597.91,408Zm5,4.58-2.22-1.89,2.38,0.06ZM490,250q0.65,0,.4,1.58a1.43,1.43,0,0,1-2,1.26l-3.24-.09A3,3,0,0,1,487.1,251,17.83,17.83,0,0,0,490,250Zm111.9,137.9-0.91.5a5.81,5.81,0,0,1-.79.37,2.39,2.39,0,0,0-.82.63c-2.07-2.86-1-2.81.93-1.94A4.36,4.36,0,0,0,601.9,387.94ZM621.5,333q-0.65,0-2.06.08t-2.07.08a2.11,2.11,0,0,1,.55-1.29l1.2-1.28a7.16,7.16,0,0,0-2.67-2.82q-2.14-1.5-2.84-1a15.45,15.45,0,0,0,.39-3.13,7.18,7.18,0,0,0-.7-3.16,4.17,4.17,0,0,0-1.29,2.32l-0.25,2.87a32.48,32.48,0,0,0-.07,4.44,15.47,15.47,0,0,0,.63,3.94,22.26,22.26,0,0,0,1.58-1.92A2.21,2.21,0,0,1,615.4,331a7.19,7.19,0,0,1,.1,3.79,11.72,11.72,0,0,0,0,4.58q1.84-1.26,3.67-2.26a50.36,50.36,0,0,0,4.36-2.76Zm-3.21-12.64a8.43,8.43,0,0,0-.07,3.27,22.85,22.85,0,0,0,.79,3.29,5.17,5.17,0,0,1,1.16-2.06l1.05-.89a2.61,2.61,0,0,0,.74-1,4.31,4.31,0,0,0,0-2.22,1.16,1.16,0,0,0,.15.79,5.17,5.17,0,0,0,.75,1.33Zm6.68-26.5a7.34,7.34,0,0,1,1.81,4Zm0.55-6.26q-0.07.78,1,.16t0.38-.64q-1.73,0-1.29,1.14a18.74,18.74,0,0,0,1,2.25Zm1.71-19.31q-1.73,0-1.95-1.23a4.85,4.85,0,0,0-.8-2,3.61,3.61,0,0,1-1.05.89q-0.34.12-.52,2.21t0.62,2.76a7.09,7.09,0,0,1,1.19,1.21q-0.62,2.08-1.4,4.8a12.65,12.65,0,0,0-.2,5.88,2.46,2.46,0,0,0,.76-1.29l0.12-1.3q-0.16,1.83,1.35,1.87ZM605,369.71a6.14,6.14,0,0,1-.72,2.07,6.15,6.15,0,0,0-.73,2.07,2.88,2.88,0,0,1-.36-0.79,7.87,7.87,0,0,1-.24-0.92,2.43,2.43,0,0,0-.46-0.93,3.88,3.88,0,0,0,.93-0.76,7.62,7.62,0,0,0,.8-0.5A1.23,1.23,0,0,1,605,369.71Zm8.85,12.53-1.51,0,0.32-3.65,1.51,0Zm-0.13-10.73a7.82,7.82,0,0,1-.7,3,5,5,0,0,1-1.66,1.66,8.45,8.45,0,0,1,.22-3.66,16.8,16.8,0,0,0,.48-4.17,11.37,11.37,0,0,0-1.14-1.86,2.89,2.89,0,0,1-.7-1.85,13.63,13.63,0,0,1,2.86,4.39A8.65,8.65,0,0,1,613.76,371.51Zm3.37,3.49-1.51,0L616,371l1.51,0Zm0.65-7.31-1.51,0,0.25-2.87,1.51,0Zm-0.4-5.24a3.44,3.44,0,0,0-.5.77,8,8,0,0,1-1.22,1.54,22.91,22.91,0,0,0-2.74-4.52,10.45,10.45,0,0,1-2.09-4.5l1.25-14.09a4.36,4.36,0,0,1,1.59.43,4.35,4.35,0,0,0,1.59.43,1.52,1.52,0,0,1,.19,1.57q-0.37.51-.87,1.28a8.68,8.68,0,0,0,.73,2.76q0.63,1.46,1.15,2.91a6.71,6.71,0,0,1,.39,2.89,4.83,4.83,0,0,1-1.78,3q1.16,1.6,1.59,1.61,1.08,0,1.16,1.6A4,4,0,0,1,617.38,362.46Zm-5-24.71a7.62,7.62,0,0,1-2.3,1.51,6,6,0,0,1-2.23.73,13,13,0,0,0,1.61-2.31,7.5,7.5,0,0,0,1-3.11,2.15,2.15,0,0,0,.62,1.59Q611.84,336.94,612.42,337.74Zm8.16,5.71a5.28,5.28,0,0,0-1.88.47,1.71,1.71,0,0,0-1.3,1.27,5.74,5.74,0,0,0-.08-1.57,15.11,15.11,0,0,0-.49-1.84q0.55-1.29.69-1.68t1.44-.35a3.43,3.43,0,0,0,.49,1.84A15.2,15.2,0,0,0,620.58,343.45Zm-10-35.83q-0.65,0-.35-0.92t-1.43-1q-1.73,0-1.35.62a1.65,1.65,0,0,1,.09,1.44l0.55-6.26a12.18,12.18,0,0,1,1.28,2.65Q610,306,610.54,307.62Zm13,19.69-0.77-1.07ZM622.23,315a2.83,2.83,0,0,0-1.57.61,4.92,4.92,0,0,1-2.87.58q0.7-.5.42-2.34a21.24,21.24,0,0,0-.78-3.42q0.69-.51,2.1-1.64a8.26,8.26,0,0,0,2.19-2.69,10.7,10.7,0,0,1,.43,3.67q-0.08,2.09-.22,3.66-0.22,0-.17-0.53a0.94,0.94,0,0,1-.16-0.66,1.44,1.44,0,0,0-.35-0.92h-0.43a1.27,1.27,0,0,0-.91.5l0.85,2.64A0.93,0.93,0,0,0,622.23,315Zm0-19.35q-0.86,2.33-1.76,5.18a13.8,13.8,0,0,1-2.12,4.39,0.77,0.77,0,0,0,.17.53,1,1,0,0,0,.84.28A6.8,6.8,0,0,1,618,308.6a24.07,24.07,0,0,1-2,2.56,17.82,17.82,0,0,0-2-2.14,13.83,13.83,0,0,1-2.34-2.94,4.81,4.81,0,0,1,1.79.57,4.48,4.48,0,0,1,1.72,1.35,14.43,14.43,0,0,1,0-4.05q0.3-2.21.48-4.17a11.78,11.78,0,0,0-.22-3.67,3.73,3.73,0,0,0-1.83-2.53,5.41,5.41,0,0,1,2,.71,7.26,7.26,0,0,1,2.51,2.29,2.42,2.42,0,0,1,.91-0.5A8.32,8.32,0,0,1,622.22,295.63ZM617.92,283a10.11,10.11,0,0,1-.9,4q-1,2.46-1.88,5.31a5.74,5.74,0,0,1,.4-3.26,32.16,32.16,0,0,1,1.5-3.49,4.62,4.62,0,0,0-1.61-1.35,4.08,4.08,0,0,0-1.47-.56l0.37-4.17a8.49,8.49,0,0,0,1.49,2.78A1.69,1.69,0,0,0,617.92,283ZM610.87,277c-7-.18-3-4.12-1.25-1.73Z" transform="translate(-173.63 -173.15)"/><path class="a" d="M516.09,278.78l-1-1.12,0.55,1.08,1-1.42Zm49.46,139.33,1.94,3.76-0.64.69-1.95-3.51Zm-23.12-2.76,1.44,1.43-0.37,1.48-1.44-1.43ZM541.49,413q0,0.51,0,2.16a9.66,9.66,0,0,0,.34,2.45,0.62,0.62,0,0,1-.75-0.08,0.86,0.86,0,0,1-.7-1.09,1.31,1.31,0,0,0,0,1.52,6.36,6.36,0,0,1,.73,2.11q-1.15-1.14-2.53-2.3t-1.53-4.48l1.11,2.15a5.71,5.71,0,0,0,1.18-2.66ZM528,414.29a7,7,0,0,1,1.48,2.32,20,20,0,0,0,1.45,2.82,5.12,5.12,0,0,0,1.17-2.41,1.17,1.17,0,0,1,1.41-1.12,1.71,1.71,0,0,1,1.51,1.56,9.18,9.18,0,0,1,.27,2.19,3.47,3.47,0,0,1-3.08,1.19,11.6,11.6,0,0,0-3.48.13,3.7,3.7,0,0,1,.26.79,5.77,5.77,0,0,1,.08,1.53l-1.53-2.7,0.65-.94-1.11-2.15a0.89,0.89,0,0,0,.58.57q0.6,0.07.66-1.2,0.09-2-.14-1.92T528,414.29Zm-4.57,7.37,0.62,2.86-0.9-.1-0.49-2.34Zm-2.33-1.78a0.67,0.67,0,0,1,1.07-.26,2.29,2.29,0,0,1,.51,2,1,1,0,0,1-.59-0.32A5.37,5.37,0,0,1,521.08,419.89Zm-6.82-9.11,2.49,4.84-0.79.68-2.35-4.57ZM608,426.52l-0.66,1.2,1.25,2.42,0.65-.94Zm-8.5,4.15-1.65-.18L597.82,432l1.65,0.18Zm3.81-3.9a6,6,0,0,1,.18,2.68,21.12,21.12,0,0,0-.25,2.13,8.27,8.27,0,0,1,1.59-1.6q1.1-.9,2-1.56a4.5,4.5,0,0,1-2-.85A4.38,4.38,0,0,0,603.35,426.77Zm3.66-3.92-0.65.95,1.25,2.42,0.79-.68Zm-3-6.16q0,0.76,0,2.16a3.38,3.38,0,0,1-.4,2.11,1.58,1.58,0,0,0,.84,1.36,1.74,1.74,0,0,0,.74.33,11.86,11.86,0,0,0-.37-3.34A12.87,12.87,0,0,0,604,416.69Zm-18,4.9a9.94,9.94,0,0,0,1,2.65q0.63,1.08,1,1.89-0.94.66-1.64,1.09a1.42,1.42,0,0,0-.74,1.19l2.7,0.29a4.65,4.65,0,0,1,1.07-1.91,1.39,1.39,0,0,1,.84-0.16q-0.13-.52-0.39-1.31a18.16,18.16,0,0,0-.94-2.39l-0.07,1.39a2.62,2.62,0,0,1-.52,1.34Zm2.66,10.94,2.19-11.18,0.51-1.21Zm18.65-24.11-3.46-.37a2.79,2.79,0,0,0,.39,1.31,8.91,8.91,0,0,0,.84,1.36q0.47-.46,1.1-1A7.12,7.12,0,0,0,607.23,408.42Zm-25.5,22.1a0.76,0.76,0,0,0-1.13-.12,3.94,3.94,0,0,0-1.19,1.14,3.3,3.3,0,0,0,1.68-.33A1.14,1.14,0,0,0,581.73,430.52ZM600,410.43a25.9,25.9,0,0,0,1,3.66,8.76,8.76,0,0,1,.6,3.36,4,4,0,0,1,1-1.29,1.85,1.85,0,0,0,.67-1.32q-0.42-.81-1.39-2.56T600,410.43Zm-5.68,14.86-2.1-.23-0.08,1.77,2.1,0.23Zm6-11.28a1.19,1.19,0,0,0-1.73-.19,2.53,2.53,0,0,0-1.08,2.17,5.19,5.19,0,0,1,1.5-1.36A3,3,0,0,1,600.33,414ZM606,400.16a3.41,3.41,0,0,0,.45,1.7,1.56,1.56,0,0,0,.93,1,3.42,3.42,0,0,0-.45-1.7A1.56,1.56,0,0,0,606,400.16Zm-4.52,6.11-0.94.66,0.64,2.35,0.9,0.1ZM589.18,423l-0.65.95,1.24,2.42,0.79-.68Zm15.24-22.2q-0.45,0-1.42,1.24a8.93,8.93,0,0,0-1.14,1.78l0.37,1.82a2.59,2.59,0,0,1,1.37-1.75,5.08,5.08,0,0,0,1.16-.51,3,3,0,0,0-.08-1.53Zm-26.07,24.58-1.5-.16-0.08,1.77,1.5,0.16Zm13.88-3.06a3.52,3.52,0,0,0-1.53-2.7C586.94,417.54,588.39,420.63,592.24,422.27Zm15.41-29q-0.73,2.71-1.43,3.14a3.13,3.13,0,0,1-1.31.49,2.16,2.16,0,0,0-1.16.51q-0.55.45-.83,3.21a6.28,6.28,0,0,0,.75-1.44,6.26,6.26,0,0,1,.75-1.44,4.77,4.77,0,0,0,1.22,1.27q0.37,0.17.45,0a1,1,0,0,1,.24-0.23,0.62,0.62,0,0,1,.59.19,17.82,17.82,0,0,1,.36-2.88A17.79,17.79,0,0,0,607.64,393.24Zm-31,30.89-2.1-.23-0.08,1.77,2.1,0.23Zm22.52-19.64a2.24,2.24,0,0,0-1.77.7,2.24,2.24,0,0,1-1.77.7,2.45,2.45,0,0,0,.11.9q0.13,0.4.26,0.92l0.25,1a15.46,15.46,0,0,0,1.62-2.36A9.79,9.79,0,0,1,599.11,404.49Zm-17.27,20.46-0.51,1.21,1.83,2.74,0.67-1.45Zm23.39-35a6.1,6.1,0,0,0,.23,1.55,3,3,0,0,1,.11.77,2.48,2.48,0,0,1-1.68-1.2,2.81,2.81,0,0,0-1.08-1.13l3,5.91a3.48,3.48,0,0,1,.53-1.59q0.49-.83,1-1.54a4.71,4.71,0,0,0-1.07-1.38A4.71,4.71,0,0,1,605.23,389.93Zm-6.75,12-1.5-.16-0.07,1.51,1.5,0.16ZM569.13,425.6a6.13,6.13,0,0,1-.38,1.73,1.41,1.41,0,0,1-.49.71l1.53,2.7a1.38,1.38,0,0,1,.81-1.18,3.59,3.59,0,0,0,1.26-1.13A3.76,3.76,0,0,0,570.5,427,3.76,3.76,0,0,1,569.13,425.6Zm36.32-40.21a8.18,8.18,0,0,0,1.35,3.44q1,1.38,1.71,2.21A31.59,31.59,0,0,0,605.45,385.39ZM578.71,424.1a7.19,7.19,0,0,0,.88,3.65q0,0.76,0-.77A5.42,5.42,0,0,0,578.71,424.1Zm-13,2.91-0.66,1.2,2,2.5,0.66-1.2Zm38.94-41.45-1.86,1.07,0.24,1.29,1.55-.85Zm-26,33.21-0.65.95,2.35,4.57,0.79-.68Zm22.11-27-3.46-.37q0.06,2-1.05,1.54c-1.43-.65-1.64-0.91-1,2.3a1.77,1.77,0,0,0,1.51,1.69q0.9,0.1,2-1.68A36.3,36.3,0,0,0,600.77,391.73Zm0.17-3.53-1.65-.18-0.07,1.51,1.65,0.18Zm-21.41,28.13a4.73,4.73,0,0,0,1.07,1.38c1.64,1.46,1.15.41,0.26-.73A1.84,1.84,0,0,0,579.53,416.33ZM608,373l-0.36,1.23,1.44,1.43,0.36-1.23Zm-34,55.43-4.36-.47-0.7,2q-1.83.31-3.75-2.06t-3.83-5.24q-1.9-2.87-3.89-5.5t-3.94-2.84a7,7,0,0,0,2.31,2.28,6.45,6.45,0,0,0,2.38.77,23,23,0,0,0,2.41.13,7.88,7.88,0,0,1,2.4.39q0.85,1.11,1.56,2.07a3.77,3.77,0,0,1,.64,2.48l-2.21-4.3a11.64,11.64,0,0,1-.14,1.38q-0.1.62-.19,2.39-0.09,2-1.14,1.78a13.56,13.56,0,0,1-1.93-.59q3,0.33,6.15.92a42.67,42.67,0,0,1,6.26,1.69,1.6,1.6,0,0,0-.08,1.64q0.41,0.93.82,1.74a2.31,2.31,0,0,1,.19-0.87q0.17-.36.34-0.85l0.35-1a1.2,1.2,0,0,1-.74-0.33,2.24,2.24,0,0,0-.43-0.55,2.92,2.92,0,0,1,.87-0.92,1.08,1.08,0,0,0,.42-1,10.21,10.21,0,0,0-1.84-2.61q-1-1-1.47-.79a18.52,18.52,0,0,1,.82,1.87,1.83,1.83,0,0,1-.08,1.77l-2.5-4.58a7.2,7.2,0,0,1,1.78-.95,1.91,1.91,0,0,0,1.18-1,0.89,0.89,0,0,1-.74-0.33l-0.28-.54q0.61-.19,1.11,2t1,5.06q0.55,2.85,1.18,5.33t1.24,2.54Zm30.87-59.07a5.37,5.37,0,0,0,1,1.38,1,1,0,0,0,.59.32,2.58,2.58,0,0,0-.53-1.58Q605.33,368.63,604.84,369.34Zm4.34-12a6.12,6.12,0,0,1-.38,1.73,1.41,1.41,0,0,1-.49.71l2.5,4.58a1.46,1.46,0,0,1,.19-0.74,3.28,3.28,0,0,0,.34-0.73,4.16,4.16,0,0,0,.5-1Zm-0.93,3.7-0.79.68,0.49,2.34,0.9,0.1Zm-53,58.2a15.28,15.28,0,0,0,.19,2.43,15.28,15.28,0,0,1,.19,2.43,1.63,1.63,0,0,1,.56-0.57,3.22,3.22,0,0,0,.54-0.32,0.82,0.82,0,0,1,.46-0.2Zm-10.58,3.42a7.77,7.77,0,0,1,4.31,1.48,10.48,10.48,0,0,1,1.37,1.29,3.06,3.06,0,0,0,1.39,1,7,7,0,0,0-1.68-2.85,3.33,3.33,0,0,0-1.77-.83,6.58,6.58,0,0,0-1.81.06A3.32,3.32,0,0,1,544.65,422.7Zm0.36,2.07-0.5,1,1.79,3.75,0.65-.94Zm-1.63,2.61a1.34,1.34,0,0,0-.28,1.24,1.64,1.64,0,0,0,.72.84,5.68,5.68,0,0,0,1,.49,1.12,1.12,0,0,1,.66.45,8.55,8.55,0,0,0-1.67-3Q543,426.57,543.37,427.38Zm66.13-89.76q-0.06,1.26-.29,3a6,6,0,0,1-.72,2.46l2.85,0.31a8.76,8.76,0,0,0-.6-3.36A7.07,7.07,0,0,0,609.51,337.62Zm-63.44,90.31,0-13.7,2,2.5,0.66-1.2Zm56.22-90.84,1.38,2.69a4.86,4.86,0,0,0-.41-2.46Q602.77,336.38,602.28,337.09Zm5.11-9.09-0.79.68,0.64,2.35,0.75,0.08Zm3.83-10.75-0.37,1.48,1.44,1.42,0.37-1.48Zm-76.85,108.9-3.3-.36q-0.17.49-.23-1.42t0-4.32q0-2.41.12-4.17l0.07-1.51a3.46,3.46,0,0,1,3.33,1.5q1.5,1.81,2.79,3.22-0.1-1-.61.19a22.78,22.78,0,0,0-1,2.94q-0.46,1.73-.83,3.21T534.37,426.15Zm77.3-118.49a5.47,5.47,0,0,0,.06,3.43q0.59,2,.85,2.76a11.73,11.73,0,0,0-.44-3.47A10.9,10.9,0,0,1,611.67,307.66Zm-10.51,11.55-0.65.95,1.23,2.67,0.8-.93Zm-0.65.95-0.65.94,1.38,2.69,0.65-.94Zm-76.92,94.43-0.65.94,1.25,2.42,0.79-.68ZM609.36,283l-0.67,1.45,2.55,3.57,0.66-1.2ZM500.63,417.93l-0.37,1.48,1.44,1.43,0.52-1.47Zm4,5q-0.6-.07-0.73-2.11T503.75,416q0-3,.33-7.07-0.25-1-.72-0.71a3.55,3.55,0,0,1-1.53.47l-21-2.28q1.09,2.4,2,4.91a13.8,13.8,0,0,0,2.08,3.91,14,14,0,0,0,4.14.32,43.36,43.36,0,0,1,4.76,0,30,30,0,0,1,4.73.64,9,9,0,0,1,4.2,2.23,22.1,22.1,0,0,0-2.71-6.64,1.93,1.93,0,0,1,1.44,1.42,8.62,8.62,0,0,0,1,1.88,2,2,0,0,0,1.12.25,1.17,1.17,0,0,1,.75.08,2.9,2.9,0,0,1,.8.59,16.94,16.94,0,0,1,1.29,1.54,1.18,1.18,0,0,1-.79.68l-0.45,0,1.38,2.69a6.1,6.1,0,0,1,1.74-3.24,4.53,4.53,0,0,0,1.43-3l0-.5v-0.25l0.15,0a0.49,0.49,0,0,0,.76-0.17,0.38,0.38,0,0,1,.31-0.22q0.84,1.36,1.6,2.84a9.62,9.62,0,0,1,1,3.28,1.63,1.63,0,0,1,.56-0.57,3.21,3.21,0,0,0,.54-0.32,0.89,0.89,0,0,1,.61-0.19q-1.8-3.49-1.58-5,0.49-.71.77-0.3t0.77-.3l0.83,1.61a11.19,11.19,0,0,0,.2,2.18,11.18,11.18,0,0,1,.2,2.18l4.06,0.44a11.88,11.88,0,0,1,.32-2,3.46,3.46,0,0,1,.76-1.69,11,11,0,0,1,2.28,2.91,2.51,2.51,0,0,0,3.11,1.23,39.19,39.19,0,0,1-1.77-4.12,37.71,37.71,0,0,0-1.63-3.86q-1.37,3.4-2.68,2.37A5.79,5.79,0,0,1,519,411.8q0.94-.66,1.15-0.38l0.64,0.83q-1.93-.72-4.5.91a39.94,39.94,0,0,0-5,3.77q-2.44,2.15-4.27,4.1T504.63,422.93Zm-10.78-5.23a20.94,20.94,0,0,0,1.55,4,7.28,7.28,0,0,0,2.2,3,1.79,1.79,0,0,0-.24-1.42,2.39,2.39,0,0,1-.71-1,3.24,3.24,0,0,0,.53-1.72l0.08-1.77a1.46,1.46,0,0,1-2-.21A3.57,3.57,0,0,0,493.85,417.7ZM611.61,283.29l-0.36,1.23,1.44,1.42,0.36-1.23ZM487.91,418.83l-0.93.41,0.64,2.35,0.9,0.1Zm-6.84,1-0.5,1,1.79,3.75,0.65-.94ZM595.65,285.62l-0.65.94,2.82-5.28,0.65-.94Zm-1,1.16a6.12,6.12,0,0,1-.38,1.73,1.41,1.41,0,0,1-.49.71l2.42-6.59a2.22,2.22,0,0,0,.82-1.43,3.43,3.43,0,0,0,.2-1ZM483.86,415.09l-4.06-.44-0.08,1.77,4.06,0.44Zm8.54-1.87-1,1.42,0.55,1.08,1-1.16Zm-1.6-4.49,1.94,3.76a1.46,1.46,0,0,1,.19-0.74,3.28,3.28,0,0,0,.34-0.72l0.35-1a2,2,0,0,0-1.39-1A12.76,12.76,0,0,0,490.8,408.74ZM476,414.25l-1.5-.16-0.08,1.77L476,416ZM580.14,284.7l-2.15.78q0,0.5.25-.48a21.42,21.42,0,0,1,.7-2.08q0.43-1.1.85-1.94t0.56-.57ZM477,410a1.19,1.19,0,0,0-1.17-.76,1.58,1.58,0,0,0-1.24.75l1.4,2.43a2.21,2.21,0,0,0,.82-1.43A3.43,3.43,0,0,0,477,410Zm105.47-126.6Q581,286.06,580,286a9.4,9.4,0,0,0-2.65.22l1.89-8.17q0.45,0,.69,1.47t0.38,3.09q0.15,1.67.22,3.32a7.62,7.62,0,0,0,.21,1.93q-0.17.49-.33-1.05t-0.22-3.45q-0.06-1.91-.07-3.31a9.5,9.5,0,0,0,0-1.14,11,11,0,0,1,1.35.27,1.93,1.93,0,0,1,1.31,1,5.94,5.94,0,0,0-.12,1q-0.13,1.25-.36,2.88t-0.44,3q-0.22,1.37-.49.84l0.3,0a0.83,0.83,0,0,0,1.43,0,13.28,13.28,0,0,0,1.37-1.88q0.65-1.07,1.22-1.9t1-.53l1.62-2.36q-0.55-1.07-1.33-.53a11.68,11.68,0,0,0-1.57,1.35q-0.79.8-1.5,1.49A0.87,0.87,0,0,1,582.46,283.43Zm-109,134.34a3.79,3.79,0,0,0,.81,2.12,1.89,1.89,0,0,0,1,.62q-0.41-.81-1-1.75A1.92,1.92,0,0,0,473.46,417.77ZM570.3,285.16l3.07-7.53q-0.1-1-.53-0.06a27.2,27.2,0,0,0-1,2.69q-0.53,1.72-.91,3.33T570.3,285.16ZM477.61,409.85l-0.94.66,1.34,3.7,0.79-.68Zm-10.86-.16-2.1-.23a20,20,0,0,0,.11,2.42,7,7,0,0,0,.56,2.47,2,2,0,0,1,.82-1.43,1.91,1.91,0,0,1,1.24-.63,7.48,7.48,0,0,1-.53-1.58A3.62,3.62,0,0,1,466.75,409.69ZM576.56,286.85a18.46,18.46,0,0,0-2-.09,18.39,18.39,0,0,1-2-.09q0.42,0.81,1.14-.26a27.37,27.37,0,0,0,1.56-2.62q0.83-1.56,1.58-3t1.35-1.38ZM470.91,411.15l-0.79.68,1.19,3.68,0.94-.66ZM577,277.51l-0.65.94,1.23,2.67,0.8-.93ZM467.43,408a3,3,0,0,0-1.22,1.77q-0.28,1.11-.73,1.06l-1.41-2.18a12.46,12.46,0,0,0,1,2.77,12.5,12.5,0,0,1,1,2.77l-1.13,1.65,0.4-8.58a1.89,1.89,0,0,1,1,.62,2.24,2.24,0,0,1,.43.55,22.2,22.2,0,0,1,.44-3q0.31-.22.59,1.84t0.61,4.63q0.33,2.57.75,4.9t0.87,2.38q0.45,0,.85-1.94t0.73-4.36q0.34-2.37.65-4.12t0.45-1.47q0-.5.08,1.53t0.09,4.58V420l-5.53-10.75Zm93.45-131.2-0.52,1.47,2.4,3.56,0.66-1.2ZM473.59,402.31l-0.65.94,1.38,2.69L475,405ZM566,283.17l-0.67,1.45,2.47-7.6,0.18,8.9ZM471.62,396L471,397.2l1.8,3.49,0.65-.94ZM547.7,284.23q0.42,0.81,1,.24a9.23,9.23,0,0,0,1.36-1.63l1.38-2a1.53,1.53,0,0,1,1.1-.9q-0.44-.3-1.08.39a15.91,15.91,0,0,0-1.37,1.76q-0.73,1.06-1.37,1.88T547.7,284.23ZM472.37,386.44a6.12,6.12,0,0,1-.38,1.73,1.41,1.41,0,0,1-.49.71,9.21,9.21,0,0,0,1.27,1.79q0.86,1,.9.22a7.73,7.73,0,0,1-.65-2.23A7.74,7.74,0,0,0,472.37,386.44Zm2.57-6.57a6.38,6.38,0,0,0,1.16,2.54,2.46,2.46,0,0,0,1.24,1,2.6,2.6,0,0,1-1.22-1.4Q475.36,380.68,474.94,379.87Zm1.65-6.17-0.36,1.23,1.44,1.43,0.36-1.23Zm-4.51-.49-0.8.93,2.3,5.58,0.94-.66Zm2.44-3.8-0.65.95,1.94,3.76,0.65-.94ZM550,280.93a3.77,3.77,0,0,0-.5,1.09,3.77,3.77,0,0,1-.5,1.09,8.34,8.34,0,0,1-.66,1.2,3.88,3.88,0,0,0,.81-1.18A4.31,4.31,0,0,0,550,280.93Zm-77.69,88.25-0.65.94,1.23,2.67,0.65-.94Zm0.88-2.7-0.93.41,0.64,2.35,0.9,0.1Zm-6.92,5.85,1.53,2.7a5.31,5.31,0,0,0-.51-2.08Q466.73,371.62,466.24,372.33ZM531,273.54q-0.49.71,0.33,0.92a9.34,9.34,0,0,0,1.27.26,10.27,10.27,0,0,0-1.22-1.27Q530.57,272.73,531,273.54ZM473.8,352.85a29,29,0,0,1,.6,3.36,6,6,0,0,0,.78,2.62l0.18-3.79Zm6.67-6.89-1.5-.16-0.08,1.77,1.5,0.16ZM474,349.57q0.45,0,.7,1.22a7.89,7.89,0,0,0,.66,2,6.71,6.71,0,0,0-.39-3Q474.34,347.84,474,349.57Zm4.47-8.4-0.77.42L478.3,344,479,344ZM532.09,279v-0.13q0-.88,0-1.9t0-1.65l0,0.38a5.55,5.55,0,0,0,2.73-.21,3.06,3.06,0,0,1,1.38-.36q-0.11-.77-0.68-0.07t-1.21,1.64q-0.65.95-1.22,1.9T532.09,279Zm-1.3-4.45-0.65.94,1.24,2.42,0.8-.93ZM470.9,347.21l-0.65.94,1.25,2.42,0.79-.68Zm2.52-8.61q0,0.5,0,1.65l0,2.29a5.15,5.15,0,0,0,.29,1.81q0.27,0.66.74,0.21a1.84,1.84,0,0,0,.15,1.67l0.9,1.75a11.41,11.41,0,0,0,.12-2.65,4.63,4.63,0,0,0-.45-1.57q-0.35-.67-0.82-1.74A18.27,18.27,0,0,1,473.41,338.6Zm-0.1-4.32-0.66,1.2,4,7.79,0.65-.94Zm2.54,0.53-0.92.41,0.63,2.61,0.9,0.1Zm-7.73,7-0.65.94,2.49,4.84,0.65-.94Zm12.11-16.7-0.65.94,1.38,2.69,0.65-.94Zm-6.53,7.16-0.37,1.48,1.44,1.42,0.52-1.47Zm-5,7.57-0.36,1.23,1.44,1.43,0.36-1.23ZM513,277.43l1.37,2.94a3.53,3.53,0,0,0-.42-2.2A1.53,1.53,0,0,0,513,277.43Zm-31.54,34.9-0.65.94,1.79,3.75ZM468.24,333l-0.93.41L468,336l0.75,0.08ZM497.06,282l-0.65.95C498.41,286.86,499.06,285.91,497.06,282Zm11.8-10.14-0.67,1.45,3.13,4.14,0.67-1.45Zm-10.48,1.4a4.59,4.59,0,0,0,1.79,2.1q1,0.48.86,2.5a2.28,2.28,0,1,1-.05-0.51q0-1.52-.06-3.56t-0.06-3.56a2.28,2.28,0,1,0-.05-0.51,4.67,4.67,0,0,0,.61,3,15.29,15.29,0,0,0,1.58,1.82,2.5,2.5,0,0,1-.8.93q-0.16.24-.45,0a3.24,3.24,0,0,1,1.95.34,3,3,0,0,1,1.45,1.3q-0.11-.77-0.36-0.29a4.24,4.24,0,0,0-.37,1.36,7.63,7.63,0,0,0-.07,1.52q0,0.64.23-.1l-3.17-3.14Q500,275,498.38,273.31Zm-14.84,20.21C486.47,299.86,485.28,291,483.54,293.52Zm-1.33-19.94-0.77.42,0.64,2.35,0.75,0.08Zm-5.88-.13a1.94,1.94,0,0,0,.5.69,3.87,3.87,0,0,1,.51.44,1,1,0,0,0,.59.32,2.4,2.4,0,0,0-.54-1.33Q476.82,272.75,476.33,273.45Zm-2.47-2-0.65.94L475,276.1l0.8-.93Zm0.94-4-0.95.91,1.89,4.77,0.8-.93ZM609.25,391.13l0.86,4.15-0.9-.1-0.9-3.4Zm-22.49,35.12a0.23,0.23,0,0,1-.31.22,0.41,0.41,0,0,1-.39.21,0.77,0.77,0,0,0-.55.45l0.28,0.54a0.89,0.89,0,0,0,.58.57,2.84,2.84,0,0,1-1.32-.9,15,15,0,0,1-1.29-1.41ZM474.22,263.84a15.31,15.31,0,0,0,1,3.4q0.74,1.86,1.51,1.69,0.54,1.33,1,.87a5.23,5.23,0,0,0,.89-1.17,4,4,0,0,1,.8-1.05q0.39-.34.5,0.69,0.49-.71.69-0.31t0.69-.31L480.94,275l-2.6-5.61,2.38,4.06a5.25,5.25,0,0,0-.09-2.93,13.69,13.69,0,0,0-1.16-2.66,11.09,11.09,0,0,0-1.49-2.06q-0.79-.85-1.22-1.4a6.25,6.25,0,0,1,2,.72,6.24,6.24,0,0,0,2,.72,0.23,0.23,0,0,1-.31.22,0.41,0.41,0,0,1-.39.21,0.77,0.77,0,0,0-.55.45q0.83,1.61,1.62.94l-0.06,1.26a31.8,31.8,0,0,0,4.35,7.07q2,2.25,6.09,2.18a30.42,30.42,0,0,0,.2-4.29,23.75,23.75,0,0,0,0-2.79q-0.09-1.28-.42-0.81a5.07,5.07,0,0,0,1.85,2.36,8.67,8.67,0,0,1,2.3,2.41,6.56,6.56,0,0,1,1.15-1.91,6.38,6.38,0,0,0,1.16-2.16q-0.53-1.58-1.22-1.27a5,5,0,0,0-1.41,1q-0.71.68-1.35,1.38t-1.35-.15a6.57,6.57,0,0,1,1.81-.06q0.9,0.1.7-2l58.32,2.51L615,279.09a17.79,17.79,0,0,0,.35,3.84,12.73,12.73,0,0,1,0,4.57l0.53-1.72q-1.35-.15-2.7-0.42a7.25,7.25,0,0,1-2.66-1.18,9.76,9.76,0,0,0,1.18,3.81,2.89,2.89,0,0,0,1.45,1.17,4.13,4.13,0,0,0,1.43.15,1.13,1.13,0,0,1,1.1.75q0,0.76-.38,0t-0.83-.09a1.17,1.17,0,0,0,1.14,1.39q-0.06,1.26-.17.36t-0.34-2.45l-0.4-2.71q-0.17-1.16-.48-0.94a4.51,4.51,0,0,1,.38,1.56,10.52,10.52,0,0,0,.92,2.89,2.8,2.8,0,0,0,.52-1.47l0.07-1.51q0,2.29-.08,4.94a9.3,9.3,0,0,1-.79,3.85q0,2.79-.15,6.45L614.83,308q-0.1,2-.39,1.86t-0.78.55a12,12,0,0,0,.7,1.22,5.39,5.39,0,0,1,.19,2.43,5.12,5.12,0,0,1-.41,2.37,10.12,10.12,0,0,0-.8,1.05,5.06,5.06,0,0,0,.79.85,3.5,3.5,0,0,1,.78,1.1l-0.33,7.07q0,0.25-1.05-.11a20,20,0,0,0-2-.6,1.14,1.14,0,0,0-1.29.24q-0.32.47,1.11,2.15-0.29-.29-0.54.2t0.24-.23a5.38,5.38,0,0,0-1-1.38,5.36,5.36,0,0,1-1-1.38q-0.49.71-.76,0.17t-0.76.17a8.77,8.77,0,0,0,.86,2.63q0.49,0.81,1.32,2.43,0,0.76-.41.59t-0.86.54l0,0.51a0.78,0.78,0,0,0,.06.39,1.61,1.61,0,0,1,0,.64,16.79,16.79,0,0,0,3,3.25,4.39,4.39,0,0,1,1.79,3.62q-0.08,1.77-.38,4.91a27.59,27.59,0,0,0-.09,5.19,0.7,0.7,0,0,1-1.14.26,2.89,2.89,0,0,0-1.87-.33,3,3,0,0,0,.22,1.8,8.59,8.59,0,0,1,.72.84,1.28,1.28,0,0,1,1.29-.24,9.35,9.35,0,0,0,1.27.26,48.6,48.6,0,0,0-.81,6q-0.22,3-.5,5.78a3.27,3.27,0,0,1-.34.72,1.69,1.69,0,0,0,.54,1.33l-2-2.5-1,1.67a3.48,3.48,0,0,0,1,2,2.83,2.83,0,0,0,1.55.8l-0.23,4.8q-0.11-.77-0.36-2.07a7.73,7.73,0,0,0-.66-2.1q-0.49.71-.77,0.3T609,370a7.08,7.08,0,0,0,1,2.77,11.63,11.63,0,0,0,1.64,2.08,0.94,0.94,0,0,1-.57,1q-0.54.2-.63,2.21a7.94,7.94,0,0,0,0,1.78L611,379.9a5.75,5.75,0,0,0-1.95-.34q-0.61.06-.88,2.57a9.91,9.91,0,0,0-1-4,4.08,4.08,0,0,0-3.52-2.28q-0.3,0,.28.41a1.34,1.34,0,0,1,.55,1.2q0,0.25-1.13,0t-1.82,1.71a7.81,7.81,0,0,0,.93,2.76,26.5,26.5,0,0,0,2,2.88,2.2,2.2,0,0,0,.16-1.89,10.33,10.33,0,0,0-.74-2,8.58,8.58,0,0,1,1.56,2.2l1.52,3a1.49,1.49,0,0,1,.67.2q0.22,0.15.71-.56l-0.94-2.39a4.36,4.36,0,0,0,1.13,1.65,5,5,0,0,1,1.24,2.42q0.49-.71.71-0.56t0.31-1.87q0.1-2-.41-2.46a1.17,1.17,0,0,1-.48-0.94q0.43,0.55.93,1.12t1-.15q-0.24,5-.76,11.34t-0.93,11.82a0.45,0.45,0,0,1-.29-0.29,0.26,0.26,0,0,1-.22-0.15,0.27,0.27,0,0,0-.22-0.15,2.44,2.44,0,0,0,.2,2.18A4.22,4.22,0,0,1,610,410a27.36,27.36,0,0,0,.13,3.69,30.4,30.4,0,0,1,.1,4.2,10.15,10.15,0,0,1-.26,2.26,1.84,1.84,0,0,1-.41.72,3.59,3.59,0,0,1-.39.34,2.11,2.11,0,0,0-.2,1.12q-0.09,2,0,3.68t0,3.17a21.25,21.25,0,0,0-1.38-2.81,6.1,6.1,0,0,0-2.44-2.67,13.62,13.62,0,0,0,1.47,4,21.9,21.9,0,0,0,2.39,3.81q0,0.51,0-1.27t-0.12-3.82q-0.13-2-.28-3.58T608.1,422q-0.89-.35-1.73,1.46t-1.71,4.25q-0.87,2.44-1.57,4.52t-1.15,2a1.72,1.72,0,0,1,.35-1.1,9.88,9.88,0,0,0,.8-1.05,8.08,8.08,0,0,1-.84-3,27.33,27.33,0,0,1-.05-3.68q0.08-1.77.71-.68t1.11,0.37a7.19,7.19,0,0,0-.89-3.65l-2.67-1.05a3.65,3.65,0,0,0,.28,3.58,4.29,4.29,0,0,0-1.14-1.39,4.31,4.31,0,0,1-1.14-1.39l-2.1-.23-1.12,1.4a11.49,11.49,0,0,0,3.22,2.13,4,4,0,0,1,.66,2q0.1,1.15.21,2.05a2.18,2.18,0,0,0,.54,1.33q0.43,0.43,1.52-.22a8,8,0,0,0-1.74,1.71,4.47,4.47,0,0,0-.88,2.57l-2.25-.24a15.07,15.07,0,0,1,.4-2.11q0.38-1.61.77-3.6a3.12,3.12,0,0,0-1.89,1.7,23.71,23.71,0,0,1-1.64,2.74l0.59-12.62,0.93,2.64q-0.84-1.36-1.83-2.86a1.88,1.88,0,0,0-2.69-.67,17.36,17.36,0,0,0,1.49,3.71l2.35,4.57-0.9-.1a1.13,1.13,0,0,0-.94.66l1.94,3.76,1-1.42a3,3,0,0,0-.11-0.77,6.08,6.08,0,0,1-.23-1.55l1.05,0.11a1.27,1.27,0,0,0,1.24-.63l-0.68-1.6a5.85,5.85,0,0,0,1.38,2.69,2,2,0,0,0,1.41.53,3,3,0,0,0,1.46-.6,2.39,2.39,0,0,1,1.68-.45,3.34,3.34,0,0,0-1.07-1.26,3.35,3.35,0,0,1-1.07-1.26,19.84,19.84,0,0,1,3,3.5,14.8,14.8,0,0,1,1.68,2.85l1-1.42-0.94-2.39a8.45,8.45,0,0,0,1.78,2.35,3.69,3.69,0,0,0,2,1.1l-0.34,7.32-22.38-2.43a3.68,3.68,0,0,1,1.08-2,2.59,2.59,0,0,1,1.46-.6,7.25,7.25,0,0,0,1.68-.33,4.19,4.19,0,0,0,1.88-1.45,17.05,17.05,0,0,0-.73-2.24,5.23,5.23,0,0,0-1.49-2.06,2.35,2.35,0,0,0,1-1.92,9.51,9.51,0,0,1,.58-2.73q-0.59-.32-1.35,1.38a37.82,37.82,0,0,0-1.47,3.9q-0.71,2.21-1.31,3.66t-1,.15a16.42,16.42,0,0,1-4.4.54,13.58,13.58,0,0,1-4.49-.74,5.52,5.52,0,0,1-1.1-2.28q-0.66-2-1.91-1.1a6,6,0,0,1,.82,1.86q0.39,1.31,0,.51l-0.26-13.73a40.56,40.56,0,0,0,2.08,4q1,1.63,2.09,3.78a1.83,1.83,0,0,0,.08-1.77,18.4,18.4,0,0,0-.82-1.87,9.68,9.68,0,0,1,2,.47,2.18,2.18,0,0,0,2.05-.28,1.73,1.73,0,0,1,0,1,3.25,3.25,0,0,1-.67,1.45,5.16,5.16,0,0,0,1.57,1.95,1.74,1.74,0,0,0,.74.33,3,3,0,0,0-3.49.38,6.46,6.46,0,0,0,.83,1.61,1.45,1.45,0,0,0,.65.7q0.37,0.17.57-.83a5.13,5.13,0,0,0,1.48,2.32,2,2,0,0,0,2.16.61,4.87,4.87,0,0,1-1.67,1.72,1.39,1.39,0,0,1-1.28,0,6.58,6.58,0,0,0-1.26-.52,2.8,2.8,0,0,0-1.43,0,3,3,0,0,0-.09,1.89,4.34,4.34,0,0,0,.67,1.72,10.78,10.78,0,0,1-3-.83q-1.63-.68-3.4-1.64l1.11,2.15a6.19,6.19,0,0,0-2.91-.7q-1.88-.08-3.67-3.82l-1,1.42,1.11,2.15q-0.61.19-1.16-1t-1.38-2.81a1.48,1.48,0,0,0-.15,1.51q0.34,0.8.76,1.6l-2.81-4.36-0.06,1.26q0.1,1,.13,2t0.48,1.07a1.09,1.09,0,0,0-1.49-.42,4.55,4.55,0,0,0-.78.42,3.4,3.4,0,0,0,.61-1.71q0.3-1.49.68-3.23l-0.83-1.61a7.27,7.27,0,0,0-.83,1.69,2.16,2.16,0,0,0,.07,1.78,4.45,4.45,0,0,1-.47-1.19,4,4,0,0,1,.45-1.6l-2.07-1a1.85,1.85,0,0,0-.23,1.62,1.1,1.1,0,0,0,.71,1,1.89,1.89,0,0,0-1.56,1.1q-0.08,1.77.82,1.87a2.19,2.19,0,0,0-1,.15q-0.54.2-.44-1.82a8.79,8.79,0,0,0-.17-2.81,1.93,1.93,0,0,0-.78-1.1q-0.51-.31-1.1-0.63a3.51,3.51,0,0,1-1.15-1.14l-0.75-.08,1.68,2.72-0.11,2.4q0,0.88-.46.08l-3.32-6.45q0-.76.41-0.59t0.86-.54a1.34,1.34,0,0,0-.55-1.2,9.39,9.39,0,0,1-.87-0.73q0-.76-0.12.88t-0.4,3.64q-0.25,2-.54,3.37t-0.71.56l-3.67-15.11a36.7,36.7,0,0,1,2.12,3q0.84,1.36,1.67,3l1.11,2.15q0.76,3.13,1.38,6t1,4.93l-2.93-5.14-0.15,0a0.75,0.75,0,0,0-.62.44l2.05,4.54a2.87,2.87,0,0,0-2-.47,8.81,8.81,0,0,1-1.89,0,1.72,1.72,0,0,1,.35-1.1,10,10,0,0,0,.8-1.05,3.17,3.17,0,0,0-1.8-1.84,18.84,18.84,0,0,0-2.32-.38l2.21,4.3a2.42,2.42,0,0,0-1.87-.46,10.92,10.92,0,0,1-2.42,0,4.41,4.41,0,0,1-2.44-1.15,7.76,7.76,0,0,1-1.94-3.64,20.73,20.73,0,0,0,1.56-2.75,5.64,5.64,0,0,1,1.69-2.23,6.28,6.28,0,0,1,.13-1.13,1.93,1.93,0,0,0-.32-1.18,1.94,1.94,0,0,1-2,1.43q-1.51,0-3,2.09a3.31,3.31,0,0,1-.15-3.31q-0.26-.79-1.86-0.58a1.82,1.82,0,0,0-1.68,2q0,1,.11.9a3.63,3.63,0,0,0,.39-0.34,3.65,3.65,0,0,1,.39-0.34q0.16-.11.11,0.9-0.1,2-.7,2t-0.64.69l0.69,1.34a2.23,2.23,0,0,0,.72.84,0.38,0.38,0,0,1,.31-0.22,0.61,0.61,0,0,0,.61-0.19,13.18,13.18,0,0,0,2.1,1.88,14.59,14.59,0,0,1,2.53,2.43q-0.75-.08-1.58-1.69-1.2-.13-0.23,1.75a3.5,3.5,0,0,0-3-.83,20.09,20.09,0,0,1-2.44.5,1.73,1.73,0,0,1-1.7-.69q-0.64-.83-0.8-3.89a1.48,1.48,0,0,0-1.09.64q-0.64.69-1.11,1.15a3.14,3.14,0,0,1-.74-0.33,3.43,3.43,0,0,0-1.27-.39,1.86,1.86,0,0,0-1.3.37,2.82,2.82,0,0,0-.85,1.94l-37.71-4.09a2.29,2.29,0,0,0-.51-2q-0.58-.44-0.49-2.46a2.42,2.42,0,0,0-2-2.63,22.77,22.77,0,0,0-3.89-.8,9.57,9.57,0,0,0,1.34,3.7q1.12,1.9,1.95,3.51a4.73,4.73,0,0,1-3-1.08,15.82,15.82,0,0,1-3.32-3.15,23.55,23.55,0,0,1-2.81-4.49,13.76,13.76,0,0,1-1.43-4.85q0.83,1.61,1.64.43l-1.4-2.43a4.49,4.49,0,0,1-1.11,1.15,3.75,3.75,0,0,0-.95.91,8.86,8.86,0,0,1,.35,2.19,5.66,5.66,0,0,0,.5,2.21,3.39,3.39,0,0,1-1.27-1.91q-0.39-1.31-2.74.46a3.4,3.4,0,0,0,.84,1.36,2.72,2.72,0,0,1,.51,2.08,3.62,3.62,0,0,0-1-1.25q-0.58-.44-0.65,1.07l-1.26-2.17a6,6,0,0,0-.62,2,21,21,0,0,1-.82,3,7.68,7.68,0,0,0-1-1.89q-0.78-1.1-1.27-.39l0.2-4.29q-0.07,1.52,1,1.63l1.12-1.4q-1-1.88-1.38-2.81a5.91,5.91,0,0,1-.42-2.33q0-1.4.18-3.79t0.13-7.47a13,13,0,0,1,2,2.88,18.51,18.51,0,0,0,1.83,2.86q-1.2-.13-1.29,1.64,1,1.88,2.11,0l3.67,7.12q2,3.9,3.9,8.67,0.31-.22.74-3t0.79-5.62q0.36-2.88.54-5t0.13-1.13l-1.31,2.14q0.61,3.11,2.39,3.81a4.49,4.49,0,0,1,1.11-1.15,4.48,4.48,0,0,0,1.11-1.15q-0.41-.81-1-2a1.9,1.9,0,0,0-1.45-1.3q0.3,0,.34,2.45t0.06,5.08q0,2.67.14,5t0.29,1.81q-2.53-4.08-5.55-8.85a87,87,0,0,1-5.49-10.11l0.17-3.53a2.7,2.7,0,0,1,.82.22q0.37,0.17.46-1.85l0.24-5,0.45,0A1.18,1.18,0,0,0,472,391l-1.11-2.15a5.39,5.39,0,0,0,.71-2.21q0.22-1.5.25-2a4.55,4.55,0,0,1,1.49,2.06q0.61,1.46,1.44,3.07,0,0.25.14,0.27a1.56,1.56,0,0,0,.64-0.69,36,36,0,0,1-1.87-5.15,46.63,46.63,0,0,1-1.24-5.84,1,1,0,0,0-.13-0.52l-0.58-.57q-0.8.93-1.94-.46t-1.94-.46q-0.29-.28-0.86-1a2.13,2.13,0,0,0-1.47-.79,12.7,12.7,0,0,0,3,6.42,2.62,2.62,0,0,0,.52-1.34l0.07-1.39a1.84,1.84,0,0,0,1,1q0.59,0.19.51,2a20.44,20.44,0,0,1-1.15,5.2,20.47,20.47,0,0,0-1.15,5.2,4.53,4.53,0,0,0,.33,2.57,2.79,2.79,0,0,1,.37,1.82,3.57,3.57,0,0,0-.26-2.57,15.75,15.75,0,0,1-1-2.9,7.39,7.39,0,0,0-.39-2.83,24,24,0,0,0-1.3-2.93,24.8,24.8,0,0,0,.16,4.71,18.77,18.77,0,0,0,.68,3.12,6.14,6.14,0,0,0,.82,1.74,1.56,1.56,0,0,1,.42.81q-0.08,1.77-.21,2.89t-0.16,1.89a6.22,6.22,0,0,1-2-2.37q-1-1.75-1.8-3.37l3-63.62q0-1,.27-1l0.45,0,0.38,0a1.36,1.36,0,0,0,.2-1q0.1-2-.36-1.94t0.07-1.39l1.13-1.65-1.07-2.91q0-3.8.16-6.58l0.22-4.67a5.76,5.76,0,0,1,.25-2.13q-0.26-.79.29,0.16a0.91,0.91,0,0,0,1.5.29l-2.23-4q0.66-4.5.83-8a44.08,44.08,0,0,1,.76-6.51l1.72,5.26-1.26-2.17-1,1.42a37.1,37.1,0,0,1,1.89,12.76q0,7.74.43,14.89a0.83,0.83,0,0,1-.65-0.7,1.13,1.13,0,0,0-1.1-.75q0.9,3.4,2.5,7.88a33.12,33.12,0,0,0,5.3,9.2l0.14,0.27a4,4,0,0,0,.23-1.75,9.49,9.49,0,0,0-.4-2.71q-0.45-1.7-1-3.41t-1.14-3q-0.54-1.33-.68-1.6a2.46,2.46,0,0,1-.46-1.45q0-.89-0.14-1.79a4.11,4.11,0,0,0-.32-1.3q-0.21-.4-1,0.27,0.49-.71.69-0.3l0.48,0.94a2.79,2.79,0,0,0,.93,1,2.51,2.51,0,0,0,2,.09,15.91,15.91,0,0,0-1.37-3.07,9.86,9.86,0,0,1-1.2-3.3l3.33,6.2,0.73-1.06a6.72,6.72,0,0,0,.34-2.37,5.24,5.24,0,0,0-1.42-3.58,12.92,12.92,0,0,1-2.29-4.18l3.62,6.48c0,0.17,0,.26.14,0.27a1.57,1.57,0,0,0,.64-0.69q-1.5-3.46-3.16-6.56a60,60,0,0,0-3.36-5.57q1.28,1.66,2.84,3.86t3,4.63a3.79,3.79,0,0,0,.61-1.71,0.86,0.86,0,0,1,1-.9,8.16,8.16,0,0,1-.89-3.52q-0.06-1.91,0-3.93a5.29,5.29,0,0,1,.4-2.11,7.2,7.2,0,0,0,.43-2.62,4.65,4.65,0,0,0-.76-3.13,7.45,7.45,0,0,1-1.2-3.43l-5-10.18a42.87,42.87,0,0,1,3.08,5.15,49.79,49.79,0,0,0,3.22,5.42,1.75,1.75,0,0,0,.43-1.1,20.24,20.24,0,0,1,0-2.41q0.08-1.77.42-1t0.83,0.09q-0.81-2.12-2-4.53a31.51,31.51,0,0,0-2.3-4.06,3.47,3.47,0,0,0-2-1.74q-0.9-.1-1.16,2.16a1.77,1.77,0,0,0-1.86-.58,6.31,6.31,0,0,1-2,.16A13,13,0,0,0,470,277a1.88,1.88,0,0,1-.13-0.52l0-.63L470,273a1.87,1.87,0,0,0,.57.82,1.86,1.86,0,0,1,.57.82,5,5,0,0,1,2.22-2.3q-0.41-.81-0.65-0.58t-0.5-.56a4,4,0,0,0,1.49,1.94,4.32,4.32,0,0,0,1.85.71,5.8,5.8,0,0,0,1.74-.07,3.22,3.22,0,0,0,1.15-.38q0.26,0.79.35,0.55t0.26-.61l0.17-.36,0,0.76q-0.08,1.77-.78,2.07a9.81,9.81,0,0,0-1.63,1,9.79,9.79,0,0,0,1.64,3.6q1.14,1.52,2.42,3.18l0.5-1a2.55,2.55,0,0,0,.31-1.87,23.31,23.31,0,0,1,0-3.94l0.45,0a1.33,1.33,0,0,1,.87.86,4.5,4.5,0,0,0,.67-1.45,4.49,4.49,0,0,1,.67-1.45q1.55,2.45,3,2.1a7.65,7.65,0,0,0,3.19-1.94l-0.94-2.39,1.82,3a1.18,1.18,0,0,1,.79-0.68,1.17,1.17,0,0,0,.79-0.68l-4.08,3.36q-0.17.49-.27-0.66a18.45,18.45,0,0,1,0-2.41l0.1-2.15v-0.13q-1.4-2.43-2.75-2.58a11.55,11.55,0,0,0-2.87.07,12.73,12.73,0,0,1-3.17,0q-1.65-.18-3.65-2.68c0-.17,0-0.26-0.14-0.27a0.75,0.75,0,0,0-.62.44l0.94,2.39a2.82,2.82,0,0,0-1.91-1.22,4.15,4.15,0,0,1-1.93-.72q-0.13-.52-0.22-0.15t-0.27.86a0.51,0.51,0,0,1-.47.46,2.81,2.81,0,0,1-1-1.38l2.07,4c0,0.17,0,.26.14,0.27a1.56,1.56,0,0,0,.64-0.69l-3.17-6.43ZM463.24,420l1.38,2.69-0.65.95-1.38-2.69Zm8.89-41.41-0.23,4.8-1.05-.11,0.23-4.8Zm10.48-103.91,5-1-0.64.69-5,1.23ZM613,320.49l1.23,2.67-0.65.94-1.23-2.67Z" transform="translate(-173.63 -173.15)"/><polygon class="b" points="167.11 53.6 296.69 54.31 297.49 83.86 299.64 142.89 298.35 226.38 167.2 228.36 167.11 53.6"/><path class="a" d="M346.08,383a6.93,6.93,0,0,0,1.78.27q2.17,0.27,4.64.63t4.55,0.8c1.38,0.3,2,.5,1.89.62q0.4,0.35-1.66.52t-4.81.33q-3.14.16-7.08,0.15a5.69,5.69,0,0,1,.34-1.65,5.71,5.71,0,0,0,.34-1.65M382.73,393h-3a1.42,1.42,0,0,0,1.8.88Q382.74,393.56,382.73,393ZM343.2,336.75l-2.19-.88-0.36,1,2,0.88ZM364,365.07L362.74,364l-0.77.69,1.21,1.05Zm2.29-2.26-0.82-1-2.7,1.73,0.81,0.88Zm47,29.61a2,2,0,0,0-1.12-1.22,3.66,3.66,0,0,0-1.69-.7,1.2,1.2,0,0,0-.35,1.31,5.66,5.66,0,0,1,.24,1.31,4.22,4.22,0,0,0,1.46-.34A4.2,4.2,0,0,1,413.25,392.42Zm-52.41-45.14h0Zm70.36,46.61L431.13,392h-1.38l0.06,1.92h1.38Zm4-2.95,1.19,0.35C437.73,387.21,436.51,387.5,435.23,390.94Zm8.4,4.39L442.74,392h-1.18l1.09,3.32h1Zm-106-85.62C365.37,307.1,353.48,308.86,337.63,309.71ZM466,392.11a6.89,6.89,0,0,0-2.21,1.65,6.86,6.86,0,0,1-2.21,1.65,19.46,19.46,0,0,0,2.51-1.39A5.37,5.37,0,0,0,466,392.11Zm1-24.58a3.74,3.74,0,0,0-1.76-2.71m-77.38-59.46C386.43,308,388.27,309,387.84,305.37Zm82.07,49.1-1.21-1.05-0.77.7,1.21,1.05Zm-1.62-14.13-0.43-1-1.94.86,0,1Zm-1.64-2.1-0.43-1-1.94.86,0,1Zm1.67-15.86a1.32,1.32,0,0,1-.79-0.18,3.82,3.82,0,0,0-1.58-.18,2.44,2.44,0,0,0-1.56.34,0.47,0.47,0,0,0-.19.35c-0.43-1,0-2.1,1.28-3.13a23.79,23.79,0,0,0,2.68-2.43l-2.69,2.08c-0.4-.12.13-0.24,1.56-0.34s3.05-.2,4.81-0.24,0.27-.07,1.65-0.07-7.47,1.21-7.86,1.21c-1,0,7.56-.55,7.23.7s-9.31,1.38-10.45,2.42l9.94-.15a2.1,2.1,0,0,1,.73,1.31c0.07,0.51-8.69,2-7.64,2,0.52,0,9.27-1.12,7.57-1s-0.57.34-2.71,0.5-4.16.31-6,.41a22.92,22.92,0,0,0-2.36.17,4.87,4.87,0,0,0,.63-1.92,1,1,0,0,1,.66-1h1l2.63-.77A2.7,2.7,0,0,1,468.32,322.39Zm4.13-18.64-0.08-2.62H471l0.08,2.61h1.38Zm-8.41-11-2.83-2.45-0.76.69,2.83,2.45Zm7.16,2.64-1.91,1.91a2.43,2.43,0,0,1,1.19.35c0.39,0.22.41,0.52,0,.87a2.18,2.18,0,0,0,.64-1.57C471.19,296.26,471.22,295.73,471.21,295.38Zm-2-50.39-0.42-.87-1.94.86,0,0.87Zm-9-10.49-0.82-1,3,1.44,1,1.55ZM350.06,396.94a0.81,0.81,0,0,1,.24,1.31,4.45,4.45,0,0,1-1.53,1.3,3.47,3.47,0,0,0,.55-1.31A2.41,2.41,0,0,1,350.06,396.94Zm4,2c-0.77.58-.9,1.43-0.11,1.66a12.66,12.66,0,0,0,2.87.45,25.42,25.42,0,0,0,3,0c0.85-.05,1-0.14.48-0.26v-0.35a1.14,1.14,0,0,0-.61-0.53q-0.8-.35-1.55.87a12.39,12.39,0,0,1-3.83.33,12.12,12.12,0,0,1-2.08-.44,2.52,2.52,0,0,1-1.1-.61,1.13,1.13,0,0,0-.9-0.35c-0.52,0-.75.08-0.68,0.26l0.21,0.52a1.35,1.35,0,0,1,.11.44c0,0.12-.26.17-0.78,0.17a0.84,0.84,0,0,1-.79-0.18v-0.44c0-.17,0-0.35,0-0.52s-0.27-.26-0.79-0.26c-1,0-1.7.23-1.95,0.69a2.51,2.51,0,0,0-.36,1.22q-0.59,0-.6-0.35a1.46,1.46,0,0,0-.62-0.87,1,1,0,0,0-1.14,1.22h-3l-0.29-14.22Zm60.71-9.32C403.38,379.8,400.61,368.69,414.73,389.64Zm-45.4-34.83-1.89,2.61-1-.7,1.69-2.43Zm64,44h-3l-0.08-2.62Zm-9.16-9.8a4,4,0,0,0-.53,2,3.13,3.13,0,0,1-1.31,2.17,4.41,4.41,0,0,0-.67-2.62C417.71,383.12,431.53,389,424.15,389Zm5,2.63a9.72,9.72,0,0,1-2-.36,9.8,9.8,0,0,0-2-.36,2.94,2.94,0,0,0,.77-0.52,6.41,6.41,0,0,0,.68-0.35,1.29,1.29,0,0,1,.68-0.17Zm10.71,5.82h5.79l-0.08-2.62h-5.79Zm6.58-6.28C443.74,391.14,446.32,387.09,446.45,391.15ZM342.6,298.92h-1.38l-0.3-9.59h1.38Zm21.49,26.76a5.42,5.42,0,0,0-1.15,1,1.65,1.65,0,0,0-.55,1.13C357.35,323.4,363.05,324.4,364.09,325.67Zm6.07,5.43H369l-1-1.57,1-.35Zm96.13,64.67a4.46,4.46,0,0,1-1.55.87,1.52,1.52,0,0,1-1.58-.18,5.13,5.13,0,0,0,1.56-.34A5.11,5.11,0,0,1,466.29,395.78Zm2.93-6.79h-3.15l1.91-1.91a1.53,1.53,0,0,0,.22.7A4.86,4.86,0,0,0,469.23,389Zm-2.9,3.16h-2.16l0-1.22h2.16Zm-4.84,8.7,9.46-1.22L470.86,397l-9.46,1.22ZM347.76,281.68l0-1.22C353.07,280.48,353.11,281.7,347.76,281.68Zm0.32-2.44L348,277.32h1.38Zm1.27-3.48-1.91,1.74-0.81-.87,1.92-1.56ZM470.27,384.63h-2.16l0-1.22h2.16Zm-0.95-5.06-2.67,2.6a1.47,1.47,0,0,0-.72-1,2.26,2.26,0,0,0-1.29-.53,10.88,10.88,0,0,1,2.63-.77A14.83,14.83,0,0,1,469.33,379.57Zm-0.94-3.1-0.09-2.79a1.3,1.3,0,0,1,1,1.4A2.11,2.11,0,0,1,468.39,376.47ZM467,375l-1.91,1.74,1.1-2.44ZM353.94,227.83q-1.75.69-1.13,1.65a11.16,11.16,0,0,0,1.74,2,5.94,5.94,0,0,1,1.54,2.18q0.43,1.13-1.9,2.17a15.25,15.25,0,0,1-2.44.6q-1.47.26-3,.69a9.18,9.18,0,0,0-2.72,1.21,3.58,3.58,0,0,0-1.51,2.17,145.72,145.72,0,0,0-2.11,23.7q-0.11,12.2-.91,24.23l-1.9-60.67Zm-8.68,36.75a2.3,2.3,0,0,1-.64-1.75q0-1.22-.63-1.22a1.4,1.4,0,0,0,.9.53Q345.58,262.32,345.26,264.58ZM471.81,380.37a1.29,1.29,0,0,1-1.5-.79C471.39,379.58,475,379.43,471.81,380.37Zm-8.87-19.47a2.41,2.41,0,0,1,2.23-1,2.21,2.21,0,0,1,2,1,13.24,13.24,0,0,0,1.43,1.84l-0.55,1.39a1.84,1.84,0,0,0-.43-1c-0.26-.34-0.8-0.35-1.57,0a5.77,5.77,0,0,1,.93,1.4,9.28,9.28,0,0,0,1.14,1.75,12,12,0,0,0,2.14-3.91,36.56,36.56,0,0,0,1.32-5c0.33-1.73.62-3.46,0.82-5.14a30.14,30.14,0,0,1,.84-4.44l0-.7a1.69,1.69,0,0,0-1.4-.79,9.14,9.14,0,0,1-2.38-.62,1.31,1.31,0,0,1,.18-0.52,1.32,1.32,0,0,0,.18-0.52,0.92,0.92,0,0,1,.38-0.52,3.36,3.36,0,0,1,1.68.18c0.84,0.21-9.78-.53-9.38-0.18,0.37-.58,8.94-0.26,9.22-1.11s-8.5-.45-7.74-1.14c0-.35,9-2,8.51-2.52s-1-.61-1.38-0.27c1.15-1-7.24-.94-6.49-2.09a13,13,0,0,1,1.7-2.26c0.13-.11-0.57-0.24-2.08-0.36s9.18-1.43,7.29-1.49-3.65,0-5.21.07-2.22.22-2,.34a0.48,0.48,0,0,1,.59.09,1,1,0,0,0,.79.18,0.83,0.83,0,0,0,.46-0.87,9.29,9.29,0,0,0-.58-2.88,0.9,0.9,0,0,0,.6.18,1.68,1.68,0,0,0,.6.18,1.18,1.18,0,0,1,.6.35,10.66,10.66,0,0,1,1-1.3,1.76,1.76,0,0,0,.38-0.43,0.75,0.75,0,0,0,0-.52,5.3,5.3,0,0,1-.14-1.22h2.75l0.91,0.79a2.8,2.8,0,0,1,.35,1.66,3.55,3.55,0,0,1-1.39,2.7,12.47,12.47,0,0,0-2.55,3.39,3.47,3.47,0,0,0,1.65-.69,4,4,0,0,1,2.24-.69l-10.88,49.85c-0.75,1,10.66.76,9.45,1.57s-2.41,1.56-3.57,2.25a4.11,4.11,0,0,1-.38-2.7,17.47,17.47,0,0,0,.23-2.18q-0.57.52,1.61,1.05c1.45,0.35-9.33,1.93-7.56,2.27s3.37,0.71,4.75,1.06,1.89,0.7,1.51,1.05l-2.3,1.91,1.21,0.88,1.53-1.39a2.18,2.18,0,0,1,.49,3c0.38-.35.4-0.58,0.08-0.7a4.84,4.84,0,0,0-1.48-.18c-0.64.35-.7,0.64-0.17,0.87a1.77,1.77,0,0,1,.84,1.75,1.72,1.72,0,0,1-.93,1.83l-2.13,1c0.4,0.35.48,0.64,0.22,0.87s-0.11.52,0.42,0.87c0.51-.35.24-0.7-0.82-1s-2.3-.74-3.67-1.15,9.78-2.13,8.72-2.71-1.27-1.29-.66-2.09a3.31,3.31,0,0,0,.44-1.74,1.89,1.89,0,0,1,1.22-1.74c0.93,0.35-10.61,2.18-9.79,3.05a3.38,3.38,0,0,1,1.07,2.71l0.1,3.31a8.45,8.45,0,0,0-1.91-1.23c-0.72-.34,11.11-1.91,10.7-2.26H468.8a3.68,3.68,0,0,0-1.29,3,2,2,0,0,0,1.46-.34,1.06,1.06,0,0,1,.87-0.35,2.39,2.39,0,0,1-.74,1.39,2.73,2.73,0,0,0-.73,1.91,2.36,2.36,0,0,1-1.4-.7l-1.42-1.23c-0.39,0,.18.13,1.68,0.35s-9.17,1.7-7.27,1.93,3.62,0.48,5.14.72,2,0.36,1.49.35a6,6,0,0,1-3.29-1.41,18,18,0,0,0-3.11-1.93,5.64,5.64,0,0,0,1.76-.43,6.7,6.7,0,0,1,2.35-.43,18.34,18.34,0,0,1,0-1.92,1.75,1.75,0,0,1,1.23-1.39c-0.4-.35-0.51-0.59-0.32-0.7s-0.24-.18-1.28-0.18a1.39,1.39,0,0,0-.78.08v0.52a1.38,1.38,0,0,1-.78.08c-1,0-1.42-.3-1.11-0.88a1,1,0,0,0-.14-1.4,0.47,0.47,0,0,1-.19.35,0.93,0.93,0,0,0-.37.7,10,10,0,0,1,.34,1.48,1.5,1.5,0,0,0,.72,1.13,1.2,1.2,0,0,1-1.39-.27c-0.54-.41,11.4-2.06,11-2.52a2.12,2.12,0,0,0-1.49,2.61,9,9,0,0,1,.29,3.14,3.15,3.15,0,0,0-1.5-.7,1.63,1.63,0,0,0-1.46.34,3.44,3.44,0,0,1,1.45,2.27q-1.77,0-4.23-.1t-4.23-.1c0,0.12.13,0.12,0.39,0a2.16,2.16,0,0,0,1.16-.69l-1.21-1.05a1.93,1.93,0,0,0-.65,1.31c0,0.51-.6.78-1.65,0.78h-2.85l-7.79,0q-2.66,0-5.6.15c-2,.11,3.44.22,1.87,0.33,0-.23-6.14-0.75-4.07-1.56-1.87-1.17,3.46-2.08,1.68-2.72A5,5,0,0,1,438,393c-0.13.12-.19,0.12-0.2,0l0-1.39c-0.38-12,4.76-.78,8.18.64,1.25,0.52-5,.68-4.3.45a3.51,3.51,0,0,0-.05,1.48,4.21,4.21,0,0,0,.95,2,7.83,7.83,0,0,0,1.47-.17,2.12,2.12,0,0,0,1.44-1.21,2.14,2.14,0,0,0,.63,1.22,1.41,1.41,0,0,0,1.78.18l5.5,2.1,1.53-1.39a3.23,3.23,0,0,0,.8.53,2.69,2.69,0,0,1,.81.88,0.17,0.17,0,0,0,.2.18v-0.35a0.77,0.77,0,0,1,.09-0.35,1.16,1.16,0,0,0,.08-0.52c0-.93-0.86-1.93-2.45-3-2-1.33-6.63-4.63-7.25-1.41a8.87,8.87,0,0,0-.14,1.92,3,3,0,0,0-.44-1.4,2.2,2.2,0,0,0-2-.71h-1.38q0.2,0-.38.52a2,2,0,0,1,1.22-1.74c16.65-9.17,9.46,7.75,20.31-5.51-22.09-19.14-4.72,6.16.6-5.84a38.43,38.43,0,0,0,1.45-3.92M349,266a1.92,1.92,0,0,1-.42-0.7,5.62,5.62,0,0,1-.45-1.92,1.92,1.92,0,0,1,1.32,1.31A1.38,1.38,0,0,1,349,266Zm5.55-11.14h-1.38l-0.91-4h1.38Zm-2.13,13.76C355,264.28,355.18,269.43,352.46,268.62Zm-3.29-10.82a11.16,11.16,0,0,1-1.2,2.35,4.27,4.27,0,0,1-1.62,1.65q0.56-1,1.11-2.26A3.33,3.33,0,0,1,349.18,257.8Zm5.21-9.39-2.11,1.74-0.61-.7,1.72-1.74Zm113.11,97.86a12,12,0,0,1-2.22,1.21c-0.57.22-.66,0.93-0.23,2.09a1.37,1.37,0,0,0-.17.7,2.14,2.14,0,0,0-.16,1c-3.84-3.33-4.14-3.56-2.8-7.68a3.29,3.29,0,0,0,.54,1.4c0.55,0.93.71,1.42,1.12,1.05a2.48,2.48,0,0,1,1.56-.34c1,0,1.49-.21,1.36-0.6s0-.61.37-0.61l0.42,0.7A1,1,0,0,1,467.49,346.27Zm-2.89-4.19a4.14,4.14,0,0,0-2.76-.1c-6,2.68-5.09,7.84-1-1.14ZM356.35,248.24l-2.12,1.39,1.13-1.74Zm106.47,81.65,9.9,1.06-0.1-3.14-9.9-1.05ZM473,326.42l-0.76.69-1.21-1,0.76-.7Zm-7,4.19,5.51,2.09a3.85,3.85,0,0,0,1.33-1.39,1.72,1.72,0,0,0,.07-1,9.6,9.6,0,0,0-.43-1.22,4.62,4.62,0,0,1-.17-2.18c0.79,0-10-.74-9.77-0.1A14.08,14.08,0,0,0,466,330.61Zm2.38,5-0.92,1.91-1.2-.53,0.93-1.74Zm3.78-11.14a1,1,0,0,1-.56.87,7.15,7.15,0,0,0-1.15.87,1,1,0,0,1,.86-0.87A1,1,0,0,0,472.12,324.5ZM472,319.27q0,1,0,2.35a2.55,2.55,0,0,1-.63,1.83,1.73,1.73,0,0,1-.25-1.83A10.83,10.83,0,0,1,472,319.27Zm-12.67-27.59h-1.38l-0.1-3.14h1.38Zm13,18.7-1.67,3.31-1.19-.35,1.67-3.31Zm-1-18.31q-1.72,1.56-4.68,4.43a45.32,45.32,0,0,0-5.22,6,3.85,3.85,0,0,1,1.29.27,10.77,10.77,0,0,0,2.28.44,2.55,2.55,0,0,0,.74-1.57,6.44,6.44,0,0,1,.72-2.09,2.36,2.36,0,0,0,.6.35,7,7,0,0,0,.7.26,2,2,0,0,1,.7.44c-0.25.35,0.3,0.82,1.62,1.4s-0.29,1.25,1.22,1.94-8.46.37-7.47,1,3.06,3.55,2.29,4l1.47-5.09a4.35,4.35,0,0,1-.35,1.48,5.8,5.8,0,0,1-.93,1.65l1.41,1.05,4-3.47a12.28,12.28,0,0,1-2,2.52,9,9,0,0,1-2.59,2,5.51,5.51,0,0,1,.92,1c0.2,0.28.5,0.2,0.88-.26a6.39,6.39,0,0,1-1.17.34,3.91,3.91,0,0,1-2.38-.71l-1.54,1.21c-0.52.12-.11,0.33,1.2,0.61s2.83,0.64,4.46,1-8.16-.31-6.91.09,9.77,1.85,9.12,2.2c0.91-.35-9.67-1.89-9.25-2.45s3,1.05,3.75.36L463,309.16c-0.38.35,10.56,1.77,10.33,2.1a6.6,6.6,0,0,1-1,1c0.9-.69,1.1-1.31.63-1.83a18,18,0,0,1-1.33-1.66l1.81,1.4-10.13-2.1c-1.47-.94,8.88-0.65,8.55-1.22a4.47,4.47,0,0,1-.56-2.09,2.34,2.34,0,0,1,.92-2.09c0.62-.44-10.13-2.28-9.77-3.32,1.18,0,12.38.94,11.07,0.71s0.17-.54-1.68-0.89-3.57-.72-5.15-1.07-2.12-.71-1.61-1.05a1.11,1.11,0,0,0-1.38-.09,4,4,0,0,1-2,.43l1.43,0.4,0.27-2.66c0-.34.18-0.12,1.67-0.08s3.22,0.19,5.13.37,0.59,0.44,2.16.72-9-.56-9.09-0.44a1.26,1.26,0,0,0-.72-1c-0.46-.29,10.19.79,9.41,1.14l-8.9-5.45a3.87,3.87,0,0,0,.54,1.48c0.34,0.63.73,1.31,1.14,2a13.88,13.88,0,0,0,1.24-1.3c0.43-.51.8-1,1-1.3a0.47,0.47,0,0,0-.12-0.79,2.39,2.39,0,0,0-1.09-.26,30.28,30.28,0,0,0,2.6-1.65,30.67,30.67,0,0,1,2.6-1.65l0.13,4.18a0.53,0.53,0,0,1-.59,0,2.36,2.36,0,0,1-1.2-.7l-5.16,4.69a0.16,0.16,0,0,0-.19.17,1.74,1.74,0,0,0,.61.7l3.26-2.78,0.81,0.7Zm-0.6-.18a2.09,2.09,0,0,1-.79-0.18,5.45,5.45,0,0,1-1.4-.88,6.91,6.91,0,0,0,1.14-1.39,1.53,1.53,0,0,1,1-.87Zm-7-10h-1.38l-0.08-2.61h1.38ZM472,303.05h-1.38l-0.08-2.62H472Zm-1.09-22.14c-1,.93-2,1.92-3.05,3a4.37,4.37,0,0,0-1.48,3.13l0.41,0.35a1.16,1.16,0,0,1,.42.87,1.48,1.48,0,0,1-1-.35l-1-.87,6.78,7c0.12-.35,2.45-0.77.87-1.23s-3.34-1-5.26-1.5-3.57-1-5-1.5-1.9-.88-1.51-1.23a1.64,1.64,0,0,1,.16-1.31,1.3,1.3,0,0,0,.16-1.13,27.3,27.3,0,0,0,4.64-2.51A34.53,34.53,0,0,1,470.95,280.91Zm-11-17.3-1.91,1.91-0.81-.87,1.91-1.74Zm10.72,9.46a1.41,1.41,0,0,0-.17,1,5.11,5.11,0,0,1-.24,1.66,6.9,6.9,0,0,1-1,1.91,5.79,5.79,0,0,1-2.11,1.74q0-1-.07-2.09a4.34,4.34,0,0,0-.66-2.09l-1.53,1.39-0.81-.7c-0.39.11,0.12,0.33,1.49,0.62s3,0.63,4.85,1,0.51,0.76,2.08,1.16-9-.32-9.08-0.09a0.62,0.62,0,0,0-.4-0.18c-0.39,0,10.56,1.17,10.3,1.4l-10.14-2.45c-0.4-.35,10.51.53,10.18,0.53H472.3l-0.08-2.62h1.18c0.66,0-10.16-.94-9.89-0.71a0.49,0.49,0,0,1,0,.78c-0.25.28-.18,0.61,0.23,1,0.77-.46.57-1-0.54-1.57s0.65-1.22-.72-1.85,8.62-.28,7.57-1-1.1-1.51-.08-2.44a3.52,3.52,0,0,0-1.11,2.35,3.52,3.52,0,0,1-1.11,2.35,1.18,1.18,0,0,0,1.48,0A9,9,0,0,0,470.7,273.06Zm-3.83-3-5,4.51-0.81-.88,5-4.34Zm-3.42-2.28c-0.38.35-.77,0.73-1.14,1.13a1.68,1.68,0,0,0-.55,1.13q-0.4-.17,2.05-0.43c1.63-.17,3.47-0.34,5.49-0.5s0.78-.32,2.32-0.41-9-1.34-9.13-1.57l9.54,2.27c0.13-.12,2.49-0.36,1-0.71s-3.17-.68-4.95-1-3.4-.6-4.85-0.89-2-.56-1.6-0.79Zm3.35,0.19-3.44,3.12-0.81-.87,3.45-2.95ZM464,261.18l8.7,5.45L462.79,264a0.61,0.61,0,0,1-.4-0.18c-0.27-.23,10.67.71,10.28,0.71,0-.35,2.23-0.76.58-1.23s-3.45-1-5.36-1.5-3.62-1.07-5.06-1.59-2-1-1.62-1.31a1.19,1.19,0,0,1,0,1.57,5.75,5.75,0,0,1-1.13,1.56l1.41,1.05Zm6.1-18.63a6.69,6.69,0,0,0-1,1.22,6.67,6.67,0,0,1-1,1.22,6.62,6.62,0,0,0-.34-1.57,2.55,2.55,0,0,0-1.52-1.57l2.11-1.74a2.16,2.16,0,0,0,.63,1.22A12.33,12.33,0,0,0,470.14,242.55ZM465.42,249l-5.74,5.21,13.82-.63-8.89-5.28Zm4.63,3.51L467,255.27l0.66,2.27,2.3-2.08a6.25,6.25,0,0,1-.65,4.27q-1.11,2.17-5,3.38l3.81-3.82a7.38,7.38,0,0,0-1.52-1.57,2.09,2.09,0,0,1-.93-1.57,2.77,2.77,0,0,0-1.46.6,14.67,14.67,0,0,0-1.44,1.13l1.14-1.39-1.21-1,9.84,4.23a2,2,0,0,0,.3-2.88c-0.69-1.1,1.42-2.2.22-3.24s-2.4-2-3.53-2.8-1.72-1.46-1.73-1.92a2.31,2.31,0,0,0-.44-1.48,8.29,8.29,0,0,1-1-1.66,1.73,1.73,0,0,1-1.16.52,1.73,1.73,0,0,0-1.16.52l1.14-1.39-1.21-1.05q-0.77.69,1.22,1.4c1.32,0.47,2.86,1,4.57,1.59s0.22,1.24,1.61,1.94,1.91,1.46,1.55,2.27c0.26,0-8.61-1.13-10.18-1.24s8,0.71,6.14.43-3.53-.62-5-1-2.09-.7-1.7-1.05c-0.64.58-.25,1.17,1.14,1.75s3,1.17,4.78,1.76l5.07,1.68c1.59,0.53-.68,1.09-0.66,1.67-0.27-.35-9-1.81-9.71-2.2s10.16,0,10.13-.95c0-.35-0.69-0.83-2-1.4s-2.8-1.21-4.39-1.85a35,35,0,0,1-4.09-1.93c-1.12-.63-1.51-1.26-1.14-1.84a1.64,1.64,0,0,1-.63-1.22c0-.46,5.16-0.87,7-1.22-2.07.23-7.18,0.41-5.47,0.53s3.63,0.26,5.72.37-7.22-.77-5.46-0.6,10.87,1.39,10.87,1.51a53.43,53.43,0,0,0-5.57.49c-2.21.2-4.19,0.39-5.88,0.5s-2.42.28-2.15,0.51c-0.39,0,.18.13,1.68,0.35s3.17,0.57,4.95,1a26.42,26.42,0,0,1,4.67,1.5c1.32,0.58,1.74,1.11,1.23,1.57,0.36-1,.73-2.24,1.07-3.57s-2.37-2.7-2-4.09c-0.77.58,1.43,1.25,0.48,2s-1.63,1.3-2,1.65l-6.88-5.05c-0.7-.36,3.73,0,4.44-0.54,1.89-1.39,1.32-.65,1.75-0.85-1.06,0,1.34-.63-0.71-0.68-3-.07-6.5-1.29-5.68-1.34,0.19,0,6.46.45,6.63,0.2,0.18,1.18,0,2.17.48,3,0.34,0.54-7.58-1-7.26-.79l0.09-2.14-2-1.75c-0.65.23-.37,0.39,0.8,0.44s2.53,0.13,4,.19,2.86,0.1,4,.1h1l-5.51,0c-0.37,0-.39-0.33,0-1a4.73,4.73,0,0,0,.51-2.53,5.71,5.71,0,0,1-1.54,1,4.45,4.45,0,0,1-2.35.25,23.67,23.67,0,0,0-1.8-4.19c-0.75-1.39-1.36-2.45-1.77-3.14a17.32,17.32,0,0,0,2.55-.34,8.93,8.93,0,0,1,1.17-.26,11.18,11.18,0,0,1,2.17.1c1,0.11,2.89.24,5.52,0.37Zm-48.69,148-4.33,0,0-1.22,4.33,0Zm18.26-1h-3a3.23,3.23,0,0,1,.26-1.22,0.91,0.91,0,0,1,.86-0.69Zm23,1.71h-2.95l0-1.22h3Z" transform="translate(-173.63 -173.15)"/><path class="c" d="M556.88,293.07a10.64,10.64,0,0,1,1.37,2,2.5,2.5,0,0,0,2.23,1.23l0.81,0.05-0.1,1.62q-0.1,1.62.71,1.67a0.55,0.55,0,0,0,.41-0.11,0.55,0.55,0,0,1,.41-0.11,7.61,7.61,0,0,0,1.22,4.42,7.61,7.61,0,0,1,1.22,4.42Q565,310.14,562,311a1.1,1.1,0,0,1,.22.83,1.2,1.2,0,0,1-.17.53,1.21,1.21,0,0,0-.17.53q-0.07,1.08.74,1.13a1.64,1.64,0,0,0,1.58-1.39,1.55,1.55,0,0,1,1.31-1.41,5.54,5.54,0,0,1,2.67,2.88,20.71,20.71,0,0,1,1.24,4,28.89,28.89,0,0,0,1,3.73,2.83,2.83,0,0,0,1.91,2,23.88,23.88,0,0,0,1.58,7.29q1.29,3.2,2.59,6.27t2.45,6.4a22.88,22.88,0,0,1,1.16,7.4,2.27,2.27,0,0,1,1.43,1,2.26,2.26,0,0,0,2,.8,6.2,6.2,0,0,1-.21,1.21,6.34,6.34,0,0,0-.21,1.21,1,1,0,0,0,1,1.15l0.81,0.05-0.1,1.62a10.48,10.48,0,0,0,2.25,7.47,9.2,9.2,0,0,1,2.31,6.39,6.75,6.75,0,0,1-1,2.92q0,0.54,1,.61l1.35,0.08,0.54,0q-0.32,5.14,3.12,6.44a15.64,15.64,0,0,0,.7,6.15,33.32,33.32,0,0,0,2.14,4.89q1.22,2.25,2.28,4.76a15.49,15.49,0,0,1,1.13,5.77l-2.7-.17-3.79-.24q-1.62-.1-3.1-0.33t-1.46-.5l0.12-1.89a1,1,0,0,0-1-1.15q-0.81-.05-0.88,1a1.08,1.08,0,0,0,.09.69,1.07,1.07,0,0,1,.09.68,1.57,1.57,0,0,1-.34,1.06,2.14,2.14,0,0,0-1.34-.36,9.88,9.88,0,0,0-1.63,0,9.84,9.84,0,0,1-1.63,0,6.45,6.45,0,0,1-1.74-.38,1,1,0,0,1-.9-0.87q0.07-1.08.88-1,1.08,0.07,1.13-.74a1.68,1.68,0,0,0-1.77-2,3,3,0,0,0-1,.08,3,3,0,0,1-1,.08q-1.62-.1-1.55-1.18l0.05-.81A6.86,6.86,0,0,0,575,396a1.27,1.27,0,0,0-.85.63,2.24,2.24,0,0,0-.18.67q0,0.27-.83.22l-0.81-.05q-0.1,1.62-.06,3.12t-2.93,1.31q-0.61-3.3-3.29-3.74-3.73-9.74-6.89-20a88.66,88.66,0,0,0-8.31-19q0.51-8.11-3.9-11.38a46.22,46.22,0,0,0-1.75-8.93,83.25,83.25,0,0,0-2.9-7.92L539,323.17a60,60,0,0,1-2.75-8l-0.27,0a0.84,0.84,0,0,0-1,1,0.84,0.84,0,0,1-1,1,0.24,0.24,0,0,0-.25-0.29l-0.54,0a6.52,6.52,0,0,1-.58,2.68,2.87,2.87,0,0,1-1.16,1.15,3.74,3.74,0,0,0-1.14.88,3.94,3.94,0,0,0-.54,2.14l-0.07,1.08-3.25-.2,3.11-49.49a5.48,5.48,0,0,0,2.16-1.9,13,13,0,0,0,1.24-2.5,11.07,11.07,0,0,1,1.09-2.24,1.57,1.57,0,0,1,1.41-.86,1.1,1.1,0,0,1,.79.32,9.36,9.36,0,0,1,1.68-5.19,40.76,40.76,0,0,1,3.36-3.86,47.43,47.43,0,0,0,3.51-4,11.46,11.46,0,0,0,2.11-5.57q5-1.32,5.65-7.79l0.54,0q0.81,0.05.85-.49a0.72,0.72,0,0,1,.86-0.76,1.1,1.1,0,0,1,.79.32,23.3,23.3,0,0,1,5.2-9.31q3.49-3.72,6.7-7.32,0.2-3.25,1.9-4.36t1.89-4.09a1.08,1.08,0,0,0-.09-0.68,1.07,1.07,0,0,1-.09-0.68,15.77,15.77,0,0,0,2.48-.52q1.11-.34,1.23-2.23,2.43,0.15,8,.37t11,0.55q5.68,0.36,10,1t4.22,2A3.4,3.4,0,0,1,606.8,218a3.4,3.4,0,0,0-1.12,2.65l-0.07,1.08-0.54,0a0.64,0.64,0,0,0-.71.5,0.83,0.83,0,0,1-1,.48l-0.81-.05a7.8,7.8,0,0,1-2.79,5.53,16.28,16.28,0,0,0-4.23,6.79l-3-.19a4.64,4.64,0,0,1,.15,1.91,3,3,0,0,1-1.11,2.51,3,3,0,0,0-1.11,2.51l-0.07,1.08a1.1,1.1,0,0,0-.79-0.32,1.05,1.05,0,0,0-1.12.61,0.89,0.89,0,0,1-.85.63l-0.81-.05a12,12,0,0,1-1.56,5.33,21,21,0,0,1-2.82,3.9Q581,254.4,580,255.29t-0.74.9l-0.81-.05-0.22,3.52a1.1,1.1,0,0,0-.79-0.32,1.05,1.05,0,0,0-1.12.61,0.89,0.89,0,0,1-.85.63l-0.81-.05A11.51,11.51,0,0,1,573,265a24.41,24.41,0,0,1-2.65,3.36q-1.45,1.54-2.78,3.22a8.2,8.2,0,0,0-1.51,4.66,1.1,1.1,0,0,0-.79-0.32,1.05,1.05,0,0,0-1.12.61,0.89,0.89,0,0,1-.85.62l-0.81-.05a1.07,1.07,0,0,0,.09.68,1.07,1.07,0,0,1,.09.68,4.7,4.7,0,0,1-1.12,2.65q-1,1.29-1.57,1.26-1.08-.07-0.62-1t-0.89-1a0.84,0.84,0,0,0-1,1,0.84,0.84,0,0,1-1,1,0.24,0.24,0,0,0-.25-0.29l-0.54,0-0.29,4.6q-0.19,3,1.16,3.06a1.2,1.2,0,0,0,.55-0.1,1.88,1.88,0,0,1,.82-0.08,1.11,1.11,0,0,1,.79.32l0,0.54a1,1,0,0,0,1,1.15l0.81,0.05-0.05.81-0.09,1.35a0.72,0.72,0,0,1-.86.76q-1.08-.07-1-0.88a0.72,0.72,0,0,0-.76-0.86,1.11,1.11,0,0,0-.83.22M501.44,415l1.08,0.07a5.23,5.23,0,0,1,2.65,1,2.2,2.2,0,0,1,1.25,1.71q-0.05.81-1,.62t-1,.62a0.56,0.56,0,0,0,.11.41,0.55,0.55,0,0,1,.11.41q-3.79-.24-3.59-1.18A31.42,31.42,0,0,0,501.44,415ZM479.09,399l3,0.19a2.42,2.42,0,0,0-.34,1.06q-0.05.81,1,.88l0.81,0.05-0.19,3a1.21,1.21,0,0,1-.53-0.17,1.21,1.21,0,0,0-.53-0.17,0.72,0.72,0,0,0-.86.76,1.57,1.57,0,0,0,.2,1.1l-3-.19,0-.54q0.08-1.35-.73-1.4a1.21,1.21,0,0,0-.55.1,1.21,1.21,0,0,1-.55.1l0.19-3,0.54,0a1.09,1.09,0,0,0,1.42-1Zm31.47,0.35,1.62,0.1,0,0.54a4.46,4.46,0,0,0,.07,1.09,4.46,4.46,0,0,1,.07,1.09q-0.05.81-1.4,0.73a0.72,0.72,0,0,1-.76-0.86,4.48,4.48,0,0,1,.2-1.07,4.43,4.43,0,0,0,.2-1.07Zm-33.08-5.06,3,0.19a2.63,2.63,0,0,1-3.16,2.79Zm20.29-16.1,0.27,0a3,3,0,0,0,1-.08,3,3,0,0,1,1-.08q0.81,0.05.74,1.13a1.09,1.09,0,0,1-1.42,1q-1.89-.12-1.82-1.2a0.55,0.55,0,0,1,.16-0.4A0.56,0.56,0,0,0,497.78,378.14Zm55.75-79.31q2.7,0.17,2.81.72a18.12,18.12,0,0,1-.05,3q-3-.19-2.92-1Zm-10.8-5.29,0.27,0a3,3,0,0,0,1-.08,3,3,0,0,1,1-.08,0.72,0.72,0,0,1,.76.86,6,6,0,0,0-2,2.31Q543,297.9,540.82,298l0.19-3,0.54,0a1,1,0,0,0,1.15-1Zm3.61-35.88q0.54,0,1.9,0t1.33,0.49q-0.05.81-1.13,0.74l-1.62-.1-0.54,0Zm20.94-.58,0.27,0a1.09,1.09,0,0,1,1,1.42q-0.1,1.62-1.18,1.55-0.54,0-.33-1.24T567.29,257.07Zm43-6.53,0,0.54q0,0.54-.85.49l-1.62-.1-0.54,0,0-.54q0-.54.85-0.49l1.62,0.1Zm-49.76-16.16,1.62,0.1,0,0.27a4.44,4.44,0,0,0,.07,1.09,4.46,4.46,0,0,1,.07,1.09q0,0.54-1.39.46-0.54,0-.49-0.85l0.1-1.62Zm31.6-18.92q4.6,0.29,4.51,1.64l-0.25,4.06q-4.6-.29-4.53-1.37Zm-87.43,69.17,0.54,0a4.46,4.46,0,0,1,1.07.2,4.46,4.46,0,0,0,1.07.2,0.72,0.72,0,0,0,.86-0.76q0-.54-1.32-0.63l-2.16-.14Zm-9.2-.58a2.63,2.63,0,0,0,3.16-2.79q-2.7-.17-2.87.36A13.07,13.07,0,0,0,495.55,284.06Zm28.66-75.85q0.05,3.53-.17,7l-0.44,7q-0.61,9.74-1.5,19.59T520.6,261.2q-0.59,9.46-.75,18.41a143.49,143.49,0,0,0,.69,17.15,34.25,34.25,0,0,0-2.3,8.54q-0.71,4.84-1.05,10.25t-0.42,11q-0.08,5.56-.42,11-0.14,2.16-.39,4t-0.37,3.78a0.72,0.72,0,0,0,.76.86,1.89,1.89,0,0,0,.82-0.08,1.21,1.21,0,0,1,.55-0.1q0.81,0.05.73,1.4a3.28,3.28,0,0,1-.81,2.12,3.28,3.28,0,0,0-.81,2.12,6.27,6.27,0,0,0,.06,1.23q0.09,0.69,1.45.77l1.89,0.12q1.62,0.1,1.55,1.18a2.08,2.08,0,0,1-.94,2,9.26,9.26,0,0,1-1.94.56q-1.1.2-2.33,0.4a2.71,2.71,0,0,0-1.83,1l-0.17,2.7-0.24,3.79q-0.12,1.89-.07,3.25t0.59,1.39q1.08,0.07,1-.89t1-.89a0.37,0.37,0,0,1,.37.57,4.47,4.47,0,0,0-.2,1.07,40.7,40.7,0,0,1-2.39,12.07A40.68,40.68,0,0,0,512.26,394a14.39,14.39,0,0,0,0,2,16.61,16.61,0,0,1,0,2.31q-1.35-.08-3-0.32t-1.7,1.12a19.81,19.81,0,0,0,0,2.44,19.87,19.87,0,0,1,0,2.44,8.9,8.9,0,0,1-.41,2.15q-0.34,1.06-.88,1-3-.19-2.72-4.24a18.23,18.23,0,0,1,.46-3,18.25,18.25,0,0,0,.46-3q0.22-3.52-1.66-3.91a12.07,12.07,0,0,0-2.23.95q-0.85.49-1,2.38l-0.07,1.08a9.62,9.62,0,0,1-4.4.81,13.21,13.21,0,0,1-4.15-.94,16,16,0,0,0-5-1,4.47,4.47,0,0,0-1.09.07,4.45,4.45,0,0,1-1.09.07l0.58-9.2,0.88-14.06q0.44-7,.65-12.58t-0.33-5.59l-1.89-.12q-0.81-.05-0.78-0.59a3.69,3.69,0,0,1,.69-2.4l1.44-1.27a6.17,6.17,0,0,0,1.5-2.35,17.67,17.67,0,0,0,.86-5.1q0.34-5.41.43-11.11t0.43-11.11q0.29-4.6,1-8.9a44.78,44.78,0,0,1,2-8,9,9,0,0,1-1.22-4.42,48.33,48.33,0,0,1,0-6.52,46.15,46.15,0,0,1,.8-6.19,9,9,0,0,1,1.76-4.23,116.91,116.91,0,0,1-.65-13.48q0-7.19.52-14.76,0.54-8.65,1.36-17.29T495.23,220l0.36-5.68q0.19-3,.1-6a11.34,11.34,0,0,1,5.11-1.31q2.86-.09,5.83.1t6.21,0.53q3.24,0.34,6.21.53l2.43,0.15A13.83,13.83,0,0,0,524.2,208.21Z" transform="translate(-173.63 -173.15)"/><path class="a" d="M429.18,251.11l17.61-.11L447,279.44q-4.05,1.92-4.82,8.16a7.87,7.87,0,0,0-4.17,4.5,47.45,47.45,0,0,0-2,6.65,4.89,4.89,0,0,0-3.5,2.87,12.27,12.27,0,0,0-1,5.29q-1.9-.53-1.89.55t-1.62.55a17.58,17.58,0,0,1-1.86,5.7,52.14,52.14,0,0,1-2.95,4.76,36.62,36.62,0,0,0-2.81,4.76,20.07,20.07,0,0,0-1.72,5.7q-1.63-.26-2,0.42a4.51,4.51,0,0,0-.53,1.77,9.89,9.89,0,0,1-.39,1.9,1.48,1.48,0,0,1-1.62.82l0,4.61a3.66,3.66,0,0,0-3.24,2.19,4.12,4.12,0,0,1-3,2.46l0,4.61a8.69,8.69,0,0,0-3.5,3.27,27.44,27.44,0,0,0-2.27,4.62,44.82,44.82,0,0,1-2.14,4.76,10.35,10.35,0,0,1-3.09,3.68,1.7,1.7,0,0,0-.13,1.09,0.44,0.44,0,0,0,.41.27h0.81a0.48,0.48,0,0,1,.55.54,6.5,6.5,0,0,0-3.51,2.19,14.26,14.26,0,0,0-2.15,3.54q-0.8,1.9-1.74,3.94a16.73,16.73,0,0,1-2.28,3.67q0.28,1.08,1.63.67a4.57,4.57,0,0,1,2.44-.15q0.53-2.44,4.05-1.65a5.12,5.12,0,0,1-.12,2.57,1.54,1.54,0,0,0,.69,2,14.46,14.46,0,0,0,2.69-3.81l2.14-4.35q1.07-2.17,2.27-4.35A7.84,7.84,0,0,1,408,367l-0.05-8.13,6.23,0v1.63a8.13,8.13,0,0,1,3.25.11q1.9,0.39,1.34-1.77l6.5,0a7.64,7.64,0,0,0,4.21,1.6,38.54,38.54,0,0,0,5.69.1q3.11-.16,6.36-0.45a21.36,21.36,0,0,1,6,.23l0.19,28.72-52.57.34q-0.56-2.16.53-2.44a1.86,1.86,0,0,0,1.34-1.63,4,4,0,0,0-4.2.3,21.52,21.52,0,0,1-3.92,1.92,4.31,4.31,0,0,0-3.94-.92,2.66,2.66,0,0,0-2.56,2.86l-15.72.1-0.14-21.68a1.54,1.54,0,0,0-2-.66,5.12,5.12,0,0,1-2.57.15q0.53-1.9-.55-1.76a19.83,19.83,0,0,1-2.44.15q-0.28-1.35.8-1.36t0.26-1.63a12.31,12.31,0,0,1,3.66,0,2,2,0,0,1,1.77,1.61q1.35-.82,1.35-1.36a2.34,2.34,0,0,0-.55-1.49L365,359.92a1.61,1.61,0,0,1-.15-1.9l4.61,0a3.19,3.19,0,0,0,1.34-3,2.72,2.72,0,0,1,2.15-3,4.18,4.18,0,0,0-4.34-.24,4.94,4.94,0,0,0-2.69,2.73h-1.08a1.57,1.57,0,0,1-1.5-1.21,1.57,1.57,0,0,0-1.5-1.21V351a20.09,20.09,0,0,0,1.48-2.31,5.33,5.33,0,0,0,.11-3.66l3,0,0,3q2.71,0.52,3.65-.57t3.93-.57a20.68,20.68,0,0,1,1.86-5.16l2.71,0a62.89,62.89,0,0,1,6.16-10.88,36.91,36.91,0,0,0,5.35-11.42,9,9,0,0,0,4.17-4.63q1.2-3,2.26-6.52a17.2,17.2,0,0,0,5.91-8,29.37,29.37,0,0,1,5.09-8.84,8.42,8.42,0,0,0-1.9-.53,15.23,15.23,0,0,0-3-.25,10.08,10.08,0,0,0-2.44.29,1.18,1.18,0,0,0-.8,1.63l-4.88,0V290.9l-4.06,0q-0.81,0-.53,1.36a4.35,4.35,0,0,1,0,2.17,10.7,10.7,0,0,1-5.42.71,5.18,5.18,0,0,1-3.81-3.09q1.61-3,.64-5a11.27,11.27,0,0,1-.71-5.55q3.52-.57,4.75.78a27.56,27.56,0,0,0,2.86,2.69,9.76,9.76,0,0,1-1.21,1.9q-0.67.82-.12,2.71a12.53,12.53,0,0,1,2.83-2.19,4.38,4.38,0,0,0,2-3,16.72,16.72,0,0,0,3,1.88l3.26,1.6q1.09,0.26,1.08-.28a5.12,5.12,0,0,1,.26-1.63l4.61,0v1.9a14.37,14.37,0,0,0,6.35-3,18.56,18.56,0,0,0,4.17-5,49.87,49.87,0,0,0,2.94-6.25q1.33-3.4,2.67-6.66,1.36,0.26,1.35-.82t1.62-.55a7.18,7.18,0,0,1,1.06-4.07q1.07-1.63,2.15-3a20.69,20.69,0,0,0,2-3.13,8.73,8.73,0,0,0,.92-4.21m-59.88.39,48.77-.32a34.08,34.08,0,0,1-3.34,7.34q-2,3.26-4.16,6.39t-4.29,6.4a43.66,43.66,0,0,0-3.75,7.07l-33.06.22,0-3.25q-2.7.83-3-.52t-2.18-1.34q0-1.36.94-1.5a1.57,1.57,0,0,0,1.21-1.5q1.62-.55,1.23.94t1.23,0.94q1.07-1.36.65-4.2a19.06,19.06,0,0,1-.17-5,4.52,4.52,0,0,0-3.53-.79q-2.17.29-3-1.06-0.56-2.17.39-2.85a2.64,2.64,0,0,0,.93-2.31l4.61,0a1.54,1.54,0,0,0,.66-2A5.12,5.12,0,0,1,369.29,251.5Zm64.89,61.09q3.26,0.79,3.55,3.5Q435,315.83,434.18,312.59Zm-55.75-72.26a3.91,3.91,0,0,1-3.23,3.54Q375.73,240.62,378.43,240.33ZM406.06,362.9a0.75,0.75,0,0,1-.4,1.09,4.8,4.8,0,0,1-1.76.28,5.13,5.13,0,0,1-1.63-.26,1,1,0,0,1-.82-0.54q-0.28-1.35,2-1.23T406.06,362.9Zm21.08-8.81,4.61,0q-0.26,1.63.69,2t0.42,2.57a6.76,6.76,0,0,1-4.61-.38Q426.62,357.35,427.14,354.09Zm13.8-3.07q1.89-.55,1.77.53t1.76,0.53l0,3.52-3.52,0Zm-71.06-9.29q1.35,0,1.5.94a1.57,1.57,0,0,0,1.5,1.21q0.55,1.35-.81,1.09a4.34,4.34,0,0,0-2.17,0Zm31.42-1.56a2.63,2.63,0,0,1,3,3l-3,0Zm-6.5,0,4.88,0q0.28,1.9-1.62,1.37a5,5,0,0,0-3.25,0v-1.35Zm-13.88-9.12q0.28,0.81-.13.95t-0.95.28a1.72,1.72,0,0,0-.81.41,1.62,1.62,0,0,0,0,1.35l-3.25,0q0.53-1.36-.28-1.62a1.74,1.74,0,0,1-1.09-.81q0.25-2.71,2.83-2.32A5.61,5.61,0,0,1,380.92,331.09Zm-5.2-8.1,3.25,0a1.26,1.26,0,0,1-1.07,1.5,1.1,1.1,0,0,0-1.08,1.23q-1.35.55-1.22-.67A18.76,18.76,0,0,0,375.72,323Zm-12.49-4.52q1.35-.82,1.36,1.35t-1.35,1.36Zm57.06-18,4.61,0q0,1.35,0,2.44t1.9,0.53l0,3.52a5.63,5.63,0,0,0-3,1.24q-1.08,1-.52,3.39l-3,0q-0.56-3.25,1.06-4.07,0-1.08-1.09-.67a2.82,2.82,0,0,1-1.9.15l0-3.52q1.9,0.53,1.89-.55T420.29,300.48ZM386.5,230.79a4.37,4.37,0,0,0,2.85.12,1.54,1.54,0,0,1,2,.66q0,1.35-1.08,1.23a1.12,1.12,0,0,0-1.35,1A2.79,2.79,0,0,1,386.5,230.79Z" transform="translate(-173.63 -173.15)"/><path class="c" d="M231,204.87L231.6,213q0.42,5.95,1.09,13.64t1.26,16.07q0.59,8.38.94,15.42t0.4,11.52q0,4.48-.5,4.52a20.87,20.87,0,0,1-2.31,0,23.34,23.34,0,0,0-2.58,0,6.2,6.2,0,0,0-3.19,1q0.36,1.33,3.07,1.14a23.38,23.38,0,0,0,2.56-.31,23.36,23.36,0,0,1,2.56-.31q0.54,0,1.36,7.78t1.79,19.84q1,12,2,26.35t1.78,27.45q0.78,13.12,1.48,23.12l0.89,12.7-30,2.1L212,363.75q0-.54.77-0.6l1.89-.13q0.81-.06.77-0.6-2.31-2-3.59-6.68a51.79,51.79,0,0,1-1.66-10.07,77.64,77.64,0,0,1-.11-9.36,34.15,34.15,0,0,1,1.1-7.55,42.51,42.51,0,0,1-2.39-8.93q-0.74-4.7-1.08-9.57-0.43-6.22-.48-12.73T206.68,284q-0.15-2.16-.41-3.91t-0.41-3.91l11.08-.77a18.07,18.07,0,0,0-5.85-2,18.84,18.84,0,0,1-5.56-1.78l-4.42-63.25a29,29,0,0,1,5.74-1.49q3.09-.49,6.33-0.71,3-.21,5.82-0.27t5.82-.27q1.62-.11,3.23-0.36t3-.34m80.22,179.91a1.74,1.74,0,0,1,1.26-1.45,1.28,1.28,0,0,0,1-1.43l-3.51.25,0,0.54,0.09,1.35q0.06,0.81.6,0.77Zm-52.46-152-2.16.15-6.49.45q-5.14.36-7.64-.55-0.09-1.35-.17-4.33t-0.28-6q-0.21-3-.5-5.26t-0.84-2.25a3,3,0,0,0-.94.2,3,3,0,0,1-.94.2q-0.54,0-.62-1,0-.54.77-0.6l1.62-.11q0.27,0,.32-1.24a26.18,26.18,0,0,0-.06-2.85l-0.23-3.24-0.15-2.16q9.19-.64,18-1.12a145.1,145.1,0,0,1,17,0q2.14,3.38,8.36,2.95a69.62,69.62,0,0,1,7.62,6q3.62,3.28,7.13,6.83a5.74,5.74,0,0,0,2.21,4.46q2,1.49,2.1,2.84a3,3,0,0,1-.07,1,3,3,0,0,0-.07,1q0.11,1.62,1.19,1.55l0.81-.06,0.11,1.62a22.25,22.25,0,0,0,1.05,5.36,21.27,21.27,0,0,1,1,5.09,7,7,0,0,1-1,4.69,1.12,1.12,0,0,1,1,1.29q-0.06,1.09,1.29,1l0.54,0q0.09,1.35.46,4.59t0.59,6.48a35,35,0,0,1,0,5.7q-0.24,2.46-1.32,2.54a9.51,9.51,0,0,1,.46,2.68,20.24,20.24,0,0,1-.3,5.45,21.38,21.38,0,0,0-.28,5.72l0.13,1.89a146.72,146.72,0,0,1-8.93,14.07A42.77,42.77,0,0,1,287.48,309a22.44,22.44,0,0,0,1,4.55q0.88,2.93,2.51,2.81l0.54,0a40.38,40.38,0,0,0,2.66,8.91,20.93,20.93,0,0,0,4.69,6.87,38.77,38.77,0,0,0,2.46,8,19.24,19.24,0,0,1,1.57,7,4.17,4.17,0,0,1,3.13,2.09,22.21,22.21,0,0,1,1.63,3.83,26.85,26.85,0,0,0,1.63,4,6.62,6.62,0,0,0,2.64,2.8q1.4,4.52,2.9,8.49a16.53,16.53,0,0,0,4.68,6.74,15.4,15.4,0,0,0,.68,3.89,12.13,12.13,0,0,0,1.27,2.63,13,13,0,0,1,1.26,2.49,12.58,12.58,0,0,1,.65,3.49l-4.87.34a1.1,1.1,0,0,0,.21-0.83,0.84,0.84,0,0,0-1.15-.87,0.84,0.84,0,0,1-1.15-.87,0.55,0.55,0,0,1,.11-0.41,0.55,0.55,0,0,0,.11-0.41,10.65,10.65,0,0,1-1.79,1.62,2.24,2.24,0,0,0-.94,2.1l-23.79,1.66q-4.21-9.76-7.73-19.29A50.39,50.39,0,0,0,273,354.32,62,62,0,0,0,268.32,340q-3-6.31-6.43-12.32l-0.08-1.08a1.73,1.73,0,0,1,.43-1.66,4.24,4.24,0,0,0,1-.89,0.72,0.72,0,0,0-.87-0.75,4.47,4.47,0,0,0-1.07.21,4.43,4.43,0,0,1-1.07.21l-2-5.29q-0.69-2.13-1.35-3.84a10.45,10.45,0,0,1-.7-2.26l-8.11.57-1.87-26.76a34.91,34.91,0,0,0,4.34,0l4.6-.32a58.78,58.78,0,0,0,14.35-2.63,18.75,18.75,0,0,0,9.7-6.93q0.22-4.63.39-9.94a104.9,104.9,0,0,0-.21-10.71A59.41,59.41,0,0,0,277.5,244a16,16,0,0,0-4.64-8.1q-1.39-.45-2.92-1a3.28,3.28,0,0,1-2-2.72l-2.16.15-2.7.19a19.78,19.78,0,0,0-2.42.31q-1.07.21-1,.75a0.91,0.91,0,0,0,1.28.86,0.91,0.91,0,0,1,1.28.86,0.55,0.55,0,0,1-.11.41,0.55,0.55,0,0,0-.11.41,2.18,2.18,0,0,1-2.24-.93A9.67,9.67,0,0,1,258.79,232.81Zm-3,167q3-.21,3.27.18a9.13,9.13,0,0,1,.49,3.09,9.14,9.14,0,0,1-3.13-.05Q256,402.78,255.8,399.8ZM310,382.16l3.51-.25q0.08,1.08-1.62,2t-1.16.9q-0.54,0-.6-0.77L310,382.7Zm-51.63,3.61,0.52-.31q0.81-.06.92,1.57,0.09,1.35-.72,1.41-0.54,0-.62-1ZM324.51,357q1.35-.09,1.47,1.53l0.15,2.16,0.08,1.08q-3,.21-3-0.33L323,359l0.54,0A1.16,1.16,0,0,0,324.51,357Zm-67,1.43,1.89-.13,0,0.54,0.11,1.62a1,1,0,0,1-1,1.16,0.72,0.72,0,0,1-.87-0.75,1.88,1.88,0,0,1,.08-0.82,1.89,1.89,0,0,0,.08-0.82A1.1,1.1,0,0,0,257.52,358.39Zm-0.66-9.46,0.81-.06,1.89-.13q0.81-.06.85,0.48a10.17,10.17,0,0,0-.87,1.15,1.8,1.8,0,0,0-.33,1.11,1.14,1.14,0,0,0,.74.9q0.7,0.36.87,2.79-3.78.26-3.78-1.64T256.86,348.93Zm1-12.84a15.56,15.56,0,0,0,1.88-.27q1.07-.21,1.17,1.14a22.85,22.85,0,0,1,0,3.94,15.91,15.91,0,0,0-.07,2.86,8.76,8.76,0,0,0,.77,3.21q-1.35.09-1.39-.45a0.72,0.72,0,0,0-.87-0.75l-0.27,0a0.78,0.78,0,0,0-.52.31ZM246,325.79l0.54,0,1.62-.11a0.72,0.72,0,0,1,.87.75q0.08,1.08-1.55,1.19t-1.7-1a0.55,0.55,0,0,1,.11-0.42A0.55,0.55,0,0,0,246,325.79Zm-31-9a6.68,6.68,0,0,1,4.28,1.06,6.23,6.23,0,0,1,2.54,3.35,5.94,5.94,0,0,1-4.42-1A9.72,9.72,0,0,1,215,316.82Zm-12.7.89,0.81-.06,1.89-.13q0.81-.06.85,0.48-0.25.29-1.24,1.72t-2.11,2.86q-1.12,1.44-2.13,2.59a3.87,3.87,0,0,1-1.28,1.18q-0.81.06-.91-1.29l-0.19-2.7-0.06-.81a11.28,11.28,0,0,1,2.75-1.41A2.47,2.47,0,0,0,202.25,317.71Zm17.87-43.62a32.63,32.63,0,0,0,3.37-.37q1.21-.22,1.42,2.75a4.81,4.81,0,0,1-3-.47A8,8,0,0,1,220.11,274.09Zm94.18-16.64,3.24-.23,0,0.54a3,3,0,0,0,.2.94,3,3,0,0,1,.2.94q0.08,1.08-.74,1.14a8.31,8.31,0,0,0-1.85-1.23A2.28,2.28,0,0,1,314.29,257.45Zm-116.47-3q1.89-.13,1.87,1.5t0.09,3.25a2.24,2.24,0,0,1-2.1-.94,4.22,4.22,0,0,1-.77-1.3,0.83,0.83,0,0,1,.47-1,0.64,0.64,0,0,0,.49-0.71ZM267,242l1.89-.13q1.62-.11,1.66.43,0.06,0.81-1,.89a1.89,1.89,0,0,1-.82-0.08,1.89,1.89,0,0,0-.82-0.08,1.1,1.1,0,0,0-.79.33Zm-3.41-6,0.54,0q0.81-.06.74,0.9t1,0.88a0.55,0.55,0,0,0,.4-0.16,0.55,0.55,0,0,1,.4-0.16A7.87,7.87,0,0,1,264,240.6l-0.06-.81a1,1,0,0,0-1.16-1l-0.54,0,0-.27a0.69,0.69,0,0,1,.22-0.69,1.2,1.2,0,0,1,.53-0.17,0.78,0.78,0,0,0,.52-0.31A2.14,2.14,0,0,0,263.63,236Z" transform="translate(-173.63 -173.15)"/></svg>